<?xml version="1.0" encoding="UTF-8"?>
<svg version="1.1" xmlns="http://www.w3.org/2000/svg" width="640" height="480">
<path d="M0 0 C31.8634132 31.88055559 51.00390538 74.6282937 60.0625 118.3125 C60.31241699 119.45887939 60.31241699 119.45887939 60.56738281 120.62841797 C66.06021639 146.74496521 65.07969049 177.21422075 60.0625 203.3125 C59.89621094 204.2298291 59.72992187 205.1471582 59.55859375 206.09228516 C50.44380117 255.60755189 26.15411532 296.00942671 -8.8125 331.375 C-9.53840332 332.11403564 -10.26430664 332.85307129 -11.01220703 333.61450195 C-17.86516165 340.47778926 -17.86516165 340.47778926 -21.9375 342.3125 C-25.85298878 342.17266112 -28.25473502 341.75142034 -31.5625 339.625 C-32.34625 339.191875 -33.13 338.75875 -33.9375 338.3125 C-37.61736459 339.46988922 -40.78619787 341.30452856 -44.078125 343.2890625 C-45.0573291 343.87349121 -46.0365332 344.45791992 -47.04541016 345.06005859 C-48.0822998 345.67961426 -49.11918945 346.29916992 -50.1875 346.9375 C-74.4052893 361.1898665 -99.352026 370.71202978 -126.9375 376.3125 C-127.97890137 376.52422852 -129.02030273 376.73595703 -130.09326172 376.95410156 C-178.32340829 386.38052947 -231.13953111 378.35949056 -274.9375 356.3125 C-275.84894775 355.85472168 -275.84894775 355.85472168 -276.77880859 355.38769531 C-282.77252202 352.34752004 -288.64106574 349.20493267 -294.26171875 345.51171875 C-294.97980713 345.04290283 -295.69789551 344.57408691 -296.43774414 344.09106445 C-297.82731305 343.17314745 -299.20608136 342.23861158 -300.57202148 341.28588867 C-302.67150236 339.8366924 -302.67150236 339.8366924 -305.9375 338.3125 C-309.27836651 339.03713865 -311.0792878 340.4070252 -313.9375 342.3125 C-318.11585352 343.10837686 -320.62734637 342.17117318 -324.125 340 C-332.15475799 334.27219624 -338.9074781 326.73030942 -345.27734375 319.24609375 C-346.411565 317.92505959 -347.57197182 316.62617887 -348.75390625 315.34765625 C-379.98751172 281.46392668 -396.17907297 238.02167593 -403.9375 193.3125 C-404.11635742 192.43634033 -404.29521484 191.56018066 -404.47949219 190.6574707 C-405.13788605 185.84901955 -405.18050554 181.0713481 -405.24609375 176.22265625 C-405.2689872 174.59570328 -405.2689872 174.59570328 -405.29234314 172.93588257 C-405.56653082 148.98346978 -405.33823423 126.51977572 -398.9375 103.3125 C-398.68129883 102.33684082 -398.42509766 101.36118164 -398.16113281 100.35595703 C-395.24970231 89.36292825 -391.53204143 78.71854332 -386.9375 68.3125 C-386.61942383 67.58740234 -386.30134766 66.86230469 -385.97363281 66.11523438 C-370.27031466 30.71193211 -344.99006277 -2.48023685 -313.60839844 -25.4609375 C-311.95578746 -26.67407566 -310.32525631 -27.91288912 -308.6953125 -29.15625 C-274.48537928 -54.85180127 -233.09376315 -68.09722635 -190.9375 -72.6875 C-188.98070312 -72.9040625 -188.98070312 -72.9040625 -186.984375 -73.125 C-116.16820361 -79.1519082 -49.78732327 -48.9542875 0 0 Z M-204.9375 -62.6875 C-205.69530762 -62.55859375 -206.45311523 -62.4296875 -207.23388672 -62.296875 C-252.67430376 -54.47137763 -294.70050562 -33.64040565 -327.9375 -1.6875 C-328.53353027 -1.11870117 -329.12956055 -0.54990234 -329.74365234 0.03613281 C-338.62788483 8.55601323 -346.75095521 17.3104474 -353.9375 27.3125 C-354.41251953 27.97024414 -354.88753906 28.62798828 -355.37695312 29.30566406 C-367.23044107 45.9146027 -377.08753804 64.07152405 -383.9375 83.3125 C-384.36289062 84.47007812 -384.78828125 85.62765625 -385.2265625 86.8203125 C-391.09446609 103.48803866 -394.64008458 120.81778896 -396.9375 138.3125 C-397.13666016 139.80136719 -397.13666016 139.80136719 -397.33984375 141.3203125 C-402.80912171 192.71654098 -388.1600325 248.40630601 -357.9375 290.3125 C-356.91076172 291.74916016 -356.91076172 291.74916016 -355.86328125 293.21484375 C-344.85784788 308.25099239 -332.36031572 323.63516604 -316.9375 334.3125 C-316.2775 333.3225 -315.6175 332.3325 -314.9375 331.3125 C-318.55466963 327.59359747 -322.21837013 324.03185942 -326.1875 320.6875 C-329.11025843 318.13930867 -331.5155769 316.00950005 -332.9375 312.3125 C-332.86289732 307.08655868 -330.92371388 304.72994077 -327.4026947 301.21121216 C-326.77351639 300.60784027 -326.14433807 300.00446838 -325.49609375 299.3828125 C-324.53268822 298.43001907 -324.53268822 298.43001907 -323.54981995 297.45797729 C-321.50301426 295.43907927 -319.43949079 293.4382942 -317.375 291.4375 C-315.98128144 290.0688687 -314.58868948 288.69908915 -313.19726562 287.328125 C-309.79025579 283.97613668 -306.36814908 280.64028341 -302.9375 277.3125 C-304.48537345 273.21795928 -306.34371905 270.26070999 -309.0625 266.8125 C-337.83970891 229.19632917 -348.59335781 181.92365926 -342.41357422 135.30297852 C-338.19583626 106.76264302 -327.65179379 80.17075218 -309.9375 57.3125 C-309.3084375 56.47847656 -308.679375 55.64445312 -308.03125 54.78515625 C-278.2404768 16.68734052 -235.18742872 -5.24216827 -187.66796875 -11.08984375 C-152.19802456 -14.55611674 -117.12710747 -6.51943342 -85.9375 10.3125 C-85.06222656 10.78042969 -84.18695313 11.24835938 -83.28515625 11.73046875 C-69.82748729 19.36618442 -58.01691054 29.61026088 -46.9375 40.3125 C-46.28652344 40.91191406 -45.63554687 41.51132813 -44.96484375 42.12890625 C-13.62321805 71.69228369 0.79918204 116.1832669 2.19140625 158.203125 C2.96799865 198.33341818 -9.63077462 235.38553157 -33.57714844 267.47949219 C-35.73985997 270.39364119 -37.8354746 273.35437699 -39.9375 276.3125 C-38.31821212 278.10959204 -36.69291989 279.90053048 -35.0625 281.6875 C-34.54526367 282.25678223 -34.02802734 282.82606445 -33.49511719 283.41259766 C-30.1517158 287.04668761 -26.70660095 290.52904696 -23.1328125 293.9375 C-22.31538574 294.72463379 -21.49795898 295.51176758 -20.65576172 296.32275391 C-19.02848244 297.88178725 -17.38705943 299.42620911 -15.73095703 300.95458984 C-10.12212416 306.3566233 -10.12212416 306.3566233 -9.2109375 311.07421875 C-11.22177324 320.03649204 -20.96049531 326.06544934 -27.9375 331.3125 C-25.9575 332.7975 -25.9575 332.7975 -23.9375 334.3125 C-23.4528125 333.81621094 -22.968125 333.31992187 -22.46875 332.80859375 C-19.14418651 329.43927652 -15.81995379 326.16221976 -12.1875 323.125 C29.51988911 286.94607572 51.64575233 229.52989051 55.75 175.5 C55.87334365 173.10507737 55.97803801 170.7091089 56.0625 168.3125 C56.10375 167.16265625 56.145 166.0128125 56.1875 164.828125 C57.16843791 108.66942948 36.13234648 51.79053908 -2.4921875 10.91015625 C-4.53387812 8.74126765 -6.46520436 6.5334513 -8.375 4.25 C-40.50159804 -32.59661956 -89.56951436 -54.63000723 -136.9375 -62.6875 C-138.83822266 -63.0278125 -138.83822266 -63.0278125 -140.77734375 -63.375 C-161.29526873 -66.4241034 -184.52645106 -66.34197061 -204.9375 -62.6875 Z M-293.9296875 49.328125 C-326.72910445 85.42317715 -338.54613801 129.51211957 -336.9375 177.3125 C-336.50941941 183.78023932 -335.465029 190.01859041 -333.9375 196.3125 C-333.73350586 197.1566748 -333.52951172 198.00084961 -333.31933594 198.87060547 C-330.32315012 210.87497441 -326.40153262 222.21513441 -320.9375 233.3125 C-320.59315918 234.01890625 -320.24881836 234.7253125 -319.89404297 235.453125 C-315.08721171 245.20950046 -309.74689503 253.80713205 -302.9375 262.3125 C-301.74411497 263.89140242 -300.55583692 265.47419119 -299.375 267.0625 C-298.89933594 267.69671875 -298.42367187 268.3309375 -297.93359375 268.984375 C-297.60488281 269.42265625 -297.27617187 269.8609375 -296.9375 270.3125 C-296.44121094 269.98894531 -295.94492187 269.66539062 -295.43359375 269.33203125 C-291.69101756 267.1376175 -289.85772853 266.11172287 -285.5 267.0625 C-281.72384995 269.1153064 -278.77218344 272.10266982 -275.63671875 275.00390625 C-270.15837982 279.68943202 -264.03600379 283.48985895 -257.9375 287.3125 C-257.35307129 287.67907715 -256.76864258 288.0456543 -256.16650391 288.42333984 C-231.06724817 303.94458768 -202.13441719 311.53381046 -172.75 311.5625 C-172.03707794 311.56350708 -171.32415588 311.56451416 -170.58963013 311.56555176 C-158.82691301 311.55433047 -147.452356 310.83634095 -135.9375 308.3125 C-135.27057129 308.16796387 -134.60364258 308.02342773 -133.91650391 307.87451172 C-110.30564851 302.56162799 -88.36169849 291.83212636 -69.46484375 276.78515625 C-68.71066162 276.18856201 -67.95647949 275.59196777 -67.17944336 274.97729492 C-65.71771349 273.81036237 -64.26849762 272.62752598 -62.83422852 271.42700195 C-59.49688233 268.74898415 -57.56270732 267.40654602 -53.25 266.7578125 C-49.80255946 267.33509618 -47.74672496 268.2694273 -44.9375 270.3125 C-32.24356923 254.92251314 -22.22417325 237.88233014 -14.9375 219.3125 C-14.5650415 218.36479736 -14.5650415 218.36479736 -14.18505859 217.39794922 C-3.47521697 189.43954769 -1.77592832 157.47192189 -7.9375 128.3125 C-8.0931543 127.55275879 -8.24880859 126.79301758 -8.40917969 126.01025391 C-15.03331691 94.82656601 -30.79316644 66.97581342 -52.9375 44.3125 C-53.47914795 43.74821289 -54.0207959 43.18392578 -54.57885742 42.60253906 C-65.14195986 31.76598242 -77.66482843 23.24446913 -91.05273438 16.29150391 C-92.86228167 15.35157066 -94.65807516 14.38530116 -96.453125 13.41796875 C-163.97537285 -21.9618392 -241.79246535 -3.42247623 -293.9296875 49.328125 Z M-289.9375 274.3125 C-291.13800863 275.53181555 -292.26931272 276.81908766 -293.375 278.125 C-298.96376954 284.49783835 -304.98350796 290.41323587 -311.02124023 296.35864258 C-315.88271688 301.16952535 -320.5195245 306.09027703 -324.9375 311.3125 C-320.66739895 316.94707012 -315.48228415 320.99767993 -309.9375 325.3125 C-309.12708252 325.95131104 -309.12708252 325.95131104 -308.30029297 326.60302734 C-277.5765491 350.66206842 -241.0133576 363.49714679 -202.9375 370.3125 C-202.2259375 370.44527344 -201.514375 370.57804687 -200.78125 370.71484375 C-170.02807179 376.23305516 -136.53046581 372.45113187 -106.9375 363.3125 C-106.16341797 363.07724609 -105.38933594 362.84199219 -104.59179688 362.59960938 C-71.60402006 352.37690503 -42.98217099 334.60831683 -16.9375 312.3125 C-18.41876357 308.87319417 -20.36177446 306.64295662 -23.0078125 304.01171875 C-24.22984375 302.79258789 -24.22984375 302.79258789 -25.4765625 301.54882812 C-26.32992188 300.70771484 -27.18328125 299.86660156 -28.0625 299 C-28.89265625 298.17048828 -29.7228125 297.34097656 -30.578125 296.48632812 C-35.01103892 292.08468084 -39.52917439 287.85508583 -44.26708984 283.78442383 C-46.81578164 281.53858009 -49.04480513 279.0363117 -51.296875 276.5 C-52.85658375 275.11577265 -52.85658375 275.11577265 -54.8359375 275.375 C-57.60752951 276.61139792 -59.52820796 278.31287657 -61.8125 280.3125 C-67.6401452 285.2012037 -73.76893633 289.3000867 -80.24707031 293.2734375 C-81.80576017 294.231523 -83.35269375 295.20866491 -84.8984375 296.1875 C-93.17443046 301.26646554 -101.88583313 304.88143896 -110.9375 308.3125 C-112.15308594 308.77785156 -113.36867188 309.24320312 -114.62109375 309.72265625 C-132.29274508 316.05193334 -150.9309195 318.54596599 -169.625 318.5625 C-170.31146606 318.56317474 -170.99793213 318.56384949 -171.7052002 318.56454468 C-211.51505335 318.50265629 -251.21035061 305.31197098 -281.703125 279.22265625 C-285.3574725 275.67544204 -285.3574725 275.67544204 -289.9375 274.3125 Z " fill="#070707" transform="translate(490.9375,86.6875)"/>
<path d="M0 0 C7.66566089 8.40329995 8.73027441 18.59259974 10.3671875 29.41015625 C10.64773912 31.18240732 10.92968575 32.95443806 11.21295166 34.72625732 C11.80145524 38.42970986 12.3786775 42.13467214 12.94677734 45.84130859 C13.6698442 50.55834305 14.4123061 55.27204238 15.16227341 59.9848671 C15.88327577 64.52139006 16.59427796 69.0594646 17.3046875 73.59765625 C17.438395 74.44628487 17.57210251 75.29491348 17.70986176 76.16925812 C19.23007023 85.8642176 20.525455 95.46236994 21.0703125 105.26953125 C20.12414062 105.31440674 19.17796875 105.35928223 18.203125 105.40551758 C14.60908881 105.57896504 11.0159357 105.76714305 7.42285156 105.95922852 C5.88333493 106.03959141 4.34361864 106.1162369 2.80371094 106.1887207 C-22.77816407 107.40093373 -45.33297529 112.85023151 -64.9296875 130.26953125 C-65.5896875 130.26953125 -66.2496875 130.26953125 -66.9296875 130.26953125 C-67.331875 131.12998047 -67.331875 131.12998047 -67.7421875 132.0078125 C-68.96657407 134.3397856 -70.34971672 136.35172019 -71.9296875 138.45703125 C-72.4453125 139.15183594 -72.9609375 139.84664062 -73.4921875 140.5625 C-75.74967888 143.24327102 -76.88937996 143.26592361 -80.46484375 143.5859375 C-84.44799671 143.82252509 -88.43399723 143.9886886 -92.42089844 144.14794922 C-94.83905324 144.26513889 -97.24355681 144.45050149 -99.65625 144.6484375 C-110.46296532 145.35015712 -110.46296532 145.35015712 -114.51171875 142.3671875 C-117.08161591 139.13780553 -118.62773814 136.17537933 -119.9296875 132.26953125 C-121.24422971 131.56653694 -122.58140568 130.90542303 -123.9296875 130.26953125 C-125.36556842 129.08409468 -126.78021605 127.87273871 -128.1796875 126.64453125 C-146.06231851 112.15933676 -168.07464579 108.46971779 -190.4296875 107.20703125 C-193.08625867 107.05410991 -195.74232816 106.89539165 -198.3984375 106.734375 C-199.55794922 106.66855225 -200.71746094 106.60272949 -201.91210938 106.53491211 C-204.39992049 106.3161216 -206.53362234 105.90897579 -208.9296875 105.26953125 C-208.36827681 94.49593434 -206.97827655 83.98667983 -205.3125 73.33984375 C-205.05182231 71.65269784 -204.79140049 69.96551237 -204.53121948 68.27828979 C-203.98873844 64.76986918 -203.44189464 61.26216286 -202.89208984 57.75488281 C-202.19084903 53.27803641 -201.50273863 48.79928125 -200.81808662 44.3198719 C-200.28530208 40.84610409 -199.74456505 37.37360863 -199.20156479 33.90142441 C-198.94455159 32.25055102 -198.69020011 30.5992608 -198.43866348 28.9475441 C-198.08598363 26.63829996 -197.72231777 24.33103367 -197.35595703 22.02392578 C-197.20617905 21.02005074 -197.20617905 21.02005074 -197.05337524 19.99589539 C-195.5409141 10.67652185 -192.39797686 4.14374876 -184.9296875 -1.73046875 C-170.7995468 -10.28905472 -154.48415597 -9.12759328 -138.80761719 -5.56665039 C-125.38640122 -2.25330518 -113.6742375 3.0295365 -101.9296875 10.26953125 C-101.05570312 10.80449219 -100.18171875 11.33945313 -99.28125 11.890625 C-97.48767545 13.00138257 -95.70659912 14.13230781 -93.9296875 15.26953125 C-92.98222656 14.52509766 -92.98222656 14.52509766 -92.015625 13.765625 C-68.34337285 -4.21027829 -26.49014141 -19.8927868 0 0 Z M-84.9296875 17.26953125 C-84.00027344 17.48867187 -83.07085937 17.7078125 -82.11328125 17.93359375 C-73.56641501 20.12601199 -67.10988278 22.14504596 -62.28125 29.92578125 C-60.60604768 34.07021243 -60.43313715 37.46903564 -60.4921875 41.89453125 C-60.49976074 42.68561279 -60.50733398 43.47669434 -60.51513672 44.29174805 C-60.73265955 52.10748626 -61.71240263 60.68712081 -67.6171875 66.39453125 C-75.2758732 70.72963636 -81.95138982 70.26953125 -90.9296875 70.26953125 C-90.9296875 86.76953125 -90.9296875 103.26953125 -90.9296875 120.26953125 C-87.48644687 118.892235 -85.27296372 117.98935513 -82.390625 115.984375 C-57.47300077 99.04469461 -32.31752915 92.5741746 -2.9296875 88.26953125 C-1.89631671 84.27393457 -2.03721721 81.19004623 -2.68652344 77.12841797 C-2.87712341 75.90879364 -3.06772339 74.68916931 -3.26409912 73.43258667 C-3.48058103 72.10476922 -3.69724031 70.77698068 -3.9140625 69.44921875 C-4.13326902 68.06710668 -4.35169987 66.68487138 -4.56939697 65.30252075 C-5.14583676 61.65566302 -5.7326892 58.01055567 -6.32177734 54.36572266 C-6.90817077 50.72656347 -7.48506115 47.08590139 -8.0625 43.4453125 C-8.73230848 39.22383242 -9.40418957 35.00274002 -10.08728027 30.78338623 C-11.04084008 24.8888605 -11.98309654 18.99511303 -12.82226562 13.08300781 C-12.95183655 12.1901004 -13.08140747 11.29719299 -13.21490479 10.37722778 C-13.44266777 8.79119867 -13.66080551 7.20373957 -13.86663818 5.61471558 C-14.27586339 2.80098888 -14.65132588 0.66305663 -16.31054688 -1.68261719 C-30.87178048 -11.10614171 -74.37700763 5.05262946 -84.9296875 17.26953125 Z M-172.9296875 0.26953125 C-173.70329562 2.93504414 -174.19309063 5.30921468 -174.57714844 8.03637695 C-174.76821922 9.23908737 -174.76821922 9.23908737 -174.96315002 10.46609497 C-175.38079158 13.12346646 -175.77259072 15.78397029 -176.1640625 18.4453125 C-176.44834801 20.29158192 -176.73411436 22.13762388 -177.02130127 23.98344421 C-177.62024288 27.85646121 -178.2075723 31.73099159 -178.78564453 35.60717773 C-179.52619874 40.5727811 -180.28535017 45.53529021 -181.05196762 50.49693012 C-181.78261637 55.22884334 -182.50542155 59.96194217 -183.2265625 64.6953125 C-183.36444939 65.59800684 -183.50233627 66.50070118 -183.64440155 67.43074989 C-184.03376427 69.99138639 -184.41772965 72.55276913 -184.79980469 75.11450195 C-184.97271782 76.2469912 -184.97271782 76.2469912 -185.14912415 77.40235901 C-185.68794082 81.05515633 -186.06074687 84.57571298 -185.9296875 88.26953125 C-185.00671875 88.4396875 -184.08375 88.60984375 -183.1328125 88.78515625 C-179.547018 89.44900207 -175.96401044 90.12709498 -172.38134766 90.80761719 C-170.73857395 91.11713002 -169.09500093 91.42242834 -167.45068359 91.72363281 C-145.51807131 95.74397155 -126.68339046 102.79647141 -108.11328125 115.19140625 C-104.80293908 117.35226764 -101.36201498 119.30820126 -97.9296875 121.26953125 C-97.9296875 103.77953125 -97.9296875 86.28953125 -97.9296875 68.26953125 C-109.49055973 64.41590717 -118.38616688 62.30234024 -130.2421875 63.64453125 C-133.95349512 65.88857772 -135.23013335 68.85371589 -137.296875 72.59765625 C-141.34891382 79.22826523 -148.11999258 86.01482823 -155.8046875 88.01953125 C-156.5059375 88.10203125 -157.2071875 88.18453125 -157.9296875 88.26953125 C-157.5996875 86.94953125 -157.2696875 85.62953125 -156.9296875 84.26953125 C-158.2496875 83.93953125 -159.5696875 83.60953125 -160.9296875 83.26953125 C-160.5996875 81.28953125 -160.2696875 79.30953125 -159.9296875 77.26953125 C-163.8896875 78.25953125 -163.8896875 78.25953125 -167.9296875 79.26953125 C-167.1796875 76.39453125 -167.1796875 76.39453125 -165.9296875 73.26953125 C-164.06298828 72.23461914 -164.06298828 72.23461914 -161.9296875 71.26953125 C-160.77835211 70.44627871 -159.65042509 69.58940663 -158.546875 68.703125 C-157.93714844 68.21779297 -157.32742188 67.73246094 -156.69921875 67.23242188 C-156.07402344 66.72904297 -155.44882812 66.22566406 -154.8046875 65.70703125 C-149.02426605 61.07445316 -145.98140648 59.11069824 -138.53515625 59.06640625 C-137.42035637 59.05785614 -137.42035637 59.05785614 -136.28303528 59.0491333 C-134.70180688 59.03967136 -133.12055866 59.03314459 -131.53930664 59.02929688 C-129.16450173 59.01972201 -126.79061236 58.98876858 -124.41601562 58.95703125 C-115.12647292 58.89413807 -106.90318555 59.6338333 -97.9296875 62.26953125 C-97.6064276 56.59584185 -97.37165398 50.92757819 -97.21557617 45.24682617 C-97.15049556 43.31879296 -97.06198787 41.39139432 -96.94897461 39.46557617 C-95.96208568 29.08058394 -95.96208568 29.08058394 -99.12979126 19.53668213 C-102.57173639 16.17408919 -106.58057722 14.23326403 -110.9296875 12.26953125 C-112.26078153 11.52772287 -113.59063374 10.78366995 -114.91796875 10.03515625 C-129.7809192 3.2586289 -144.89440487 -1.80826003 -161.3671875 -1.98046875 C-162.05425781 -1.98989502 -162.74132812 -1.99932129 -163.44921875 -2.0090332 C-168.56077676 -2.00563958 -168.56077676 -2.00563958 -172.9296875 0.26953125 Z M-185.359375 7.39453125 C-189.4614494 12.29253053 -190.48001996 19.17760044 -191.37182617 25.33789062 C-191.4893071 26.09983734 -191.60678802 26.86178406 -191.72782898 27.64682007 C-192.10932379 30.13446845 -192.4785846 32.62376224 -192.84765625 35.11328125 C-193.11165381 36.85074192 -193.37642107 38.5880858 -193.641922 40.32531738 C-194.3350965 44.87463866 -195.01787124 49.42546062 -195.69842529 53.97668457 C-196.39614011 58.62994716 -197.10377136 63.28170035 -197.81054688 67.93359375 C-199.19325325 77.04413021 -200.56496759 86.1562844 -201.9296875 95.26953125 C-197.49516206 93.91453737 -195.43933029 92.1632541 -192.9296875 88.26953125 C-191.89635879 85.22899821 -191.89635879 85.22899821 -191.3347168 81.90429688 C-191.09594818 80.66526611 -190.85717957 79.42623535 -190.61117554 78.1496582 C-189.49816203 71.81259363 -188.4355085 65.47127618 -187.44921875 59.11328125 C-187.22951542 57.71273537 -187.00959613 56.31222336 -186.78947449 54.91174316 C-186.33401685 52.0079678 -185.88142263 49.103765 -185.4309082 46.19921875 C-184.85510674 42.48874877 -184.27151204 38.77955189 -183.68576527 35.07064056 C-183.23210466 32.19204047 -182.78276366 29.31277868 -182.334692 26.43330383 C-182.12117709 25.06482924 -181.90628696 23.69656844 -181.68995094 22.32853699 C-181.3888951 20.42088911 -181.09434218 18.51221845 -180.80004883 16.60351562 C-180.63144852 15.52211304 -180.46284821 14.44071045 -180.28913879 13.32653809 C-179.93053178 10.27671158 -179.86560613 7.33724052 -179.9296875 4.26953125 C-182.09297408 4.26953125 -183.67089355 6.17271552 -185.359375 7.39453125 Z M-7.9296875 4.26953125 C-7.36947249 14.13468199 -6.27164691 23.80582534 -4.78515625 33.57421875 C-4.57188112 34.99234774 -4.35869223 36.4104897 -4.14558411 37.8286438 C-3.70163788 40.7721401 -3.25297198 43.71487366 -2.80151367 46.65722656 C-2.22706382 50.40725237 -1.67042721 54.15969597 -1.11791515 57.91300774 C-0.68528771 60.83139178 -0.24035583 63.74780505 0.20792198 66.66382217 C0.41844498 68.04649397 0.62457744 69.42984244 0.82599831 70.81386948 C2.36291724 81.60731833 2.36291724 81.60731833 7.0703125 91.26953125 C10.13794088 93.30777798 10.13794088 93.30777798 13.0703125 94.26953125 C11.06154152 78.45841499 8.90037799 62.67260435 6.59082031 46.90258789 C6.23998119 44.49591711 5.89305803 42.08867262 5.54980469 39.6809082 C5.04445606 36.13751974 4.52744495 32.59600596 4.0078125 29.0546875 C3.85771729 27.98694595 3.70762207 26.91920441 3.55297852 25.81910706 C2.29152593 17.37105256 1.00404033 9.95874383 -5.9296875 4.26953125 C-6.5896875 4.26953125 -7.2496875 4.26953125 -7.9296875 4.26953125 Z M-90.9296875 23.26953125 C-90.95433388 29.09024747 -90.9725218 34.91093359 -90.98461914 40.73168945 C-90.98966017 42.71346566 -90.99649288 44.69523814 -91.00512695 46.67700195 C-91.01720265 49.51905234 -91.02291795 52.36105372 -91.02734375 55.203125 C-91.03250504 56.09478867 -91.03766632 56.98645233 -91.04298401 57.90513611 C-91.04317927 60.02693726 -90.9917878 62.14863905 -90.9296875 64.26953125 C-89.01776228 66.18145647 -85.85485276 65.57473725 -83.3046875 65.64453125 C-78.06001317 65.58590176 -74.2449414 65.5196326 -70.2578125 61.9453125 C-65.23267916 55.60477661 -63.40830445 47.88370943 -64.1484375 39.9140625 C-65.11309085 34.37658127 -66.81501995 31.10988763 -70.9296875 27.26953125 C-75.5403814 24.48390369 -79.31470746 24.06080177 -84.6796875 23.6953125 C-85.85015625 23.61321533 -87.020625 23.53111816 -88.2265625 23.4465332 C-89.11859375 23.38812256 -90.010625 23.32971191 -90.9296875 23.26953125 Z M-142.9296875 64.26953125 C-141.9396875 65.25953125 -140.9496875 66.24953125 -139.9296875 67.26953125 C-139.9296875 66.27953125 -139.9296875 65.28953125 -139.9296875 64.26953125 C-140.9196875 64.26953125 -141.9096875 64.26953125 -142.9296875 64.26953125 Z M-193.9296875 97.26953125 C-194.5896875 98.25953125 -195.2496875 99.24953125 -195.9296875 100.26953125 C-195.26662598 100.30916992 -194.60356445 100.34880859 -193.92041016 100.38964844 C-164.64977016 102.22001148 -139.54680966 106.79223356 -117.65625 127.71875 C-115.16946191 130.04521507 -112.61816982 132.18229134 -109.9296875 134.26953125 C-108.59071167 133.31909751 -107.25863323 132.35893978 -105.9296875 131.39453125 C-105.1871875 130.86085938 -104.4446875 130.3271875 -103.6796875 129.77734375 C-103.1021875 129.27976562 -102.5246875 128.7821875 -101.9296875 128.26953125 C-101.9296875 127.60953125 -101.9296875 126.94953125 -101.9296875 126.26953125 C-119.0628111 111.7357233 -172.379661 82.55243998 -193.9296875 97.26953125 Z M-43.9296875 102.26953125 C-44.56358398 102.49511719 -45.19748047 102.72070312 -45.85058594 102.953125 C-60.54657331 108.25896848 -73.28197403 116.19343122 -85.9296875 125.26953125 C-84.24816677 129.00973623 -82.23929277 130.83087473 -78.9296875 133.26953125 C-75.7635064 131.88097301 -74.7312027 131.02638736 -72.4296875 128.20703125 C-55.79118025 108.19922628 -28.32038374 102.54422244 -3.78125 100.05126953 C-0.16782052 99.71997991 3.44692095 99.46128007 7.0703125 99.26953125 C3.57076665 95.65333388 2.29667669 94.34739564 -2.8671875 94.01953125 C-16.95693615 94.202515 -30.74359648 97.50396083 -43.9296875 102.26953125 Z M-102.9296875 137.26953125 C-96.6596875 137.26953125 -90.3896875 137.26953125 -83.9296875 137.26953125 C-88.51898979 132.68022896 -89.53487111 132.20377307 -95.76171875 131.74609375 C-98.81244206 132.28328595 -98.81244206 132.28328595 -102.9296875 137.26953125 Z " fill="#080808" transform="translate(413.9296875,235.73046875)"/>
<path d="M0 0 C7.17580366 0.36798993 12.54770609 4.29651627 17.25 9.48046875 C19.23133792 11.94621466 21.1361879 14.44463771 23 17 C23.99927639 18.33387573 24.99901771 19.66740395 26 21 C26.32613281 20.45730469 26.65226562 19.91460937 26.98828125 19.35546875 C27.64376953 18.28232422 27.64376953 18.28232422 28.3125 17.1875 C28.74175781 16.47980469 29.17101562 15.77210938 29.61328125 15.04296875 C30.92506467 13.11039769 32.29403845 11.58589388 34 10 C34.99 10.33 35.98 10.66 37 11 C37.89859679 13.55153403 38.58317915 15.94064108 39.1875 18.5625 C39.36474609 19.25408203 39.54199219 19.94566406 39.72460938 20.65820312 C41.39619903 27.58336029 41.40488067 33.97559665 40 41 C40.78375 40.34 41.5675 39.68 42.375 39 C45 37 45 37 47 37 C49.63560984 48.74258313 50.32199733 59.60330466 46 71 C46.9075 70.505 47.815 70.01 48.75 69.5 C52 68 52 68 56 68 C55.06656912 79.01448439 53.85249218 90.57493026 46 99 C45.01 99.33 44.02 99.66 43 100 C42.26676204 102.01508358 42.26676204 102.01508358 42 104 C42.78246094 103.71125 43.56492187 103.4225 44.37109375 103.125 C45.38300781 102.75375 46.39492188 102.3825 47.4375 102 C48.44683594 101.62875 49.45617187 101.2575 50.49609375 100.875 C53 100 53 100 54 100 C54.79249981 109.11374779 50.89474171 116.87599357 45.25 123.87109375 C42.57626623 126.40092866 39.79135351 127.92732638 36.5625 129.6875 C30.28405548 133.2339922 27.5620913 136.96130906 24.62329102 143.34057617 C22.5174174 147.79350059 22.5174174 147.79350059 19.40625 149.03515625 C17 149 17 149 15 147 C15.25692627 146.44650879 15.51385254 145.89301758 15.77856445 145.32275391 C16.9634254 142.75995542 18.13798081 140.19255357 19.3125 137.625 C19.71662109 136.75488281 20.12074219 135.88476562 20.53710938 134.98828125 C23.21704326 129.10549955 25.30959542 123.23929759 27 117 C26.2575 116.505 25.515 116.01 24.75 115.5 C17.84897774 109.2263434 16.8333982 100.96437293 16 92 C15.87191462 88.65697154 15.86419107 85.34240871 16 82 C20.06402139 82.52393307 22.13633304 83.59729777 25.125 86.375 C25.78757812 86.98085937 26.45015625 87.58671875 27.1328125 88.2109375 C28.77744823 89.78676002 30.39942974 91.37954688 32 93 C32 91.35 32 89.7 32 88 C31.113125 87.773125 30.22625 87.54625 29.3125 87.3125 C25.46089342 85.78639173 23.73521059 84.08587862 21 81 C20.175 80.13375 19.35 79.2675 18.5 78.375 C13.56790326 72.33474229 10.51686131 64.75291971 10 57 C11.11375 57.165 12.2275 57.33 13.375 57.5 C16.72032033 58.0455458 16.72032033 58.0455458 19 58 C18.29875 57.34 17.5975 56.68 16.875 56 C10.65701388 49.69394042 4 41.32741733 4 32 C10.01077136 33.63040815 16.01663928 35.27147357 22 37 C22 36.34 22 35.68 22 35 C21.175 34.79375 20.35 34.5875 19.5 34.375 C11.29068821 31.14991323 6.13179231 25.70633632 2 18 C-0.41791162 12.06512602 -0.20528217 6.3067244 0 0 Z M8 12 C8.68128203 17.79089728 11.38878709 21.60849794 15.75 25.375 C16.4925 25.91125 17.235 26.4475 18 27 C18.88556744 25.31026274 18.88556744 25.31026274 19 23 C16.61741224 18.69301444 13.66208568 15.27660298 10 12 C9.34 12 8.68 12 8 12 Z M33 22 C30.00584022 28.46738512 29.81066406 33.00727785 31 40 C31.66 40 32.32 40 33 40 C34.83292414 33.59233959 35.04559253 28.58723293 34 22 C33.67 22 33.34 22 33 22 Z M16 43 C16.54581199 46.79549259 18.05409295 48.30979295 20.9375 50.75 C22.00291016 51.67039062 22.00291016 51.67039062 23.08984375 52.609375 C24.87569353 54.19618828 24.87569353 54.19618828 27 54 C25.60485497 49.56090219 23.52304189 47.01975019 20 44 C17.82653432 43.13880866 17.82653432 43.13880866 16 43 Z M41 51 C37.96098148 56.82478551 37.6459081 61.48208608 38 68 C40.2477975 65.94766315 41.0022242 64.99332739 42 62 C42.0685495 60.10529184 42.08480372 58.2083166 42.0625 56.3125 C42.05347656 55.31863281 42.04445313 54.32476562 42.03515625 53.30078125 C42.02355469 52.54152344 42.01195312 51.78226563 42 51 C41.67 51 41.34 51 41 51 Z M22 60 C24.88087546 62.40072955 27.56404834 64.47291037 31 66 C30.88693303 64.04105639 30.88693303 64.04105639 30 62 C27.10888212 60.47835901 25.28176588 60 22 60 Z M21 68 C22.46710942 72.84146109 25.3512744 76.55948972 29 80 C29.66 80 30.32 80 31 80 C30.49614177 75.59124045 29.0886933 73.17449034 26 70 C23.38181544 68.66701026 23.38181544 68.66701026 21 68 Z M46 80 C42.87547053 83.44499404 40.20671911 86.41446739 39 91 C39.28830389 92.34378933 39.61581827 93.68041928 40 95 C44.18788859 90.06930548 46.72694671 86.55327899 47 80 C46.67 80 46.34 80 46 80 Z M23 94 C23.35544557 100.63498399 25.13095043 104.63187218 29 110 C30.60240722 105.21457979 29.08235216 101.43339492 27 97 C25.01011798 94.93439605 25.01011798 94.93439605 23 94 Z M43 111 C41.67522041 112.04714924 40.36556254 113.11344669 39.0625 114.1875 C37.96615234 115.07501953 37.96615234 115.07501953 36.84765625 115.98046875 C34.70261197 118.32505203 34.33905588 119.88391498 34 123 C37.11728368 121.63491499 39.08663738 120.13080302 41.3125 117.5625 C41.84488281 116.96566406 42.37726563 116.36882812 42.92578125 115.75390625 C43.28027344 115.17511719 43.63476562 114.59632813 44 114 C43.67 113.01 43.34 112.02 43 111 Z " fill="#080808" transform="translate(423,161)"/>
<path d="M0 0 C0.73048331 10.49055199 -1.33958453 19.73029618 -8.0078125 28.07421875 C-12.14716437 32.07559222 -17.10077491 35.01924169 -22 38 C-21.19175781 37.71125 -20.38351563 37.4225 -19.55078125 37.125 C-18.48214844 36.75375 -17.41351563 36.3825 -16.3125 36 C-15.25675781 35.62875 -14.20101562 35.2575 -13.11328125 34.875 C-10.21637944 34.0608143 -7.98299377 33.82290204 -5 34 C-5.16201063 41.29047821 -8.87050701 46.19129409 -13 52 C-13.47695312 52.68835938 -13.95390625 53.37671875 -14.4453125 54.0859375 C-18.32619966 59.16435556 -23.20051768 61.51287023 -29 64 C-29 64.33 -29 64.66 -29 65 C-28.20335937 64.57847656 -27.40671875 64.15695313 -26.5859375 63.72265625 C-25.52632812 63.17480469 -24.46671875 62.62695312 -23.375 62.0625 C-22.33085937 61.51722656 -21.28671875 60.97195312 -20.2109375 60.41015625 C-17.07583082 59.03330283 -14.38545368 58.40157784 -11 58 C-11.04432295 68.41589331 -15.5628596 75.80808599 -22.34375 83.47265625 C-24.79086718 85.72931384 -27.53136045 87.30132279 -30.4609375 88.859375 C-31.22277344 89.42398438 -31.22277344 89.42398438 -32 90 C-32 90.99 -32 91.98 -32 93 C-30.9790625 91.9171875 -30.9790625 91.9171875 -29.9375 90.8125 C-22.10267857 83 -22.10267857 83 -17 83 C-14.58838302 92.64646792 -15.9126707 101.82141128 -20.9375 110.3125 C-22.43819961 112.69596409 -23.8855596 114.87077665 -25.75390625 116.98046875 C-27.2512149 118.93833059 -27.2512149 118.93833059 -26.72290039 121.31738281 C-25.97706177 124.08512168 -24.97528996 126.38722565 -23.6796875 128.94140625 C-23.00099609 130.31135742 -23.00099609 130.31135742 -22.30859375 131.70898438 C-21.34972025 133.6175868 -20.38614233 135.52383272 -19.41796875 137.42773438 C-18.96808594 138.33974609 -18.51820313 139.25175781 -18.0546875 140.19140625 C-17.63687012 141.01842041 -17.21905273 141.84543457 -16.78857422 142.69750977 C-15.90208478 145.28589425 -16.06476787 146.47080386 -17 149 C-18.32 149.33 -19.64 149.66 -21 150 C-21.94203563 148.62810346 -22.87838797 147.25230387 -23.8125 145.875 C-24.33457031 145.10929688 -24.85664063 144.34359375 -25.39453125 143.5546875 C-27 141 -27 141 -28.3046875 137.90625 C-30.46033439 134.21085534 -32.45284143 133.37898556 -36.3125 131.625 C-47.37666569 125.97025456 -50.7503434 117.24013407 -55 106 C-55.36541597 104.67509998 -55.71703345 103.34492335 -56 102 C-51.92320841 100.3147916 -49.16924407 101.83060993 -45.25 103.4375 C-43.49429688 104.14712891 -43.49429688 104.14712891 -41.703125 104.87109375 C-40.81109375 105.24363281 -39.9190625 105.61617188 -39 106 C-39.67546875 105.443125 -40.3509375 104.88625 -41.046875 104.3125 C-51.53016555 95.34413583 -54.01421704 87.43412258 -56 74 C-56.04401811 72.33391471 -56.06368831 70.66544936 -56 69 C-52.62007831 69.53771481 -49.31262111 70.14303932 -46 71 C-46.495 69.845 -46.99 68.69 -47.5 67.5 C-50.5124249 58.5479826 -49.48021413 48.19165226 -48 39 C-43.73173127 39 -43.06117568 39.37613513 -40 42 C-40.15984375 41.30261719 -40.3196875 40.60523438 -40.484375 39.88671875 C-42.08863721 30.90528109 -41.23028946 22.47754013 -38 14 C-37.608125 12.96875 -37.21625 11.9375 -36.8125 10.875 C-36.544375 10.25625 -36.27625 9.6375 -36 9 C-33.01044859 11.74042213 -30.76271768 14.18073368 -28.8125 17.75 C-27.37321065 21.04811835 -27.37321065 21.04811835 -25 22 C-24.7525 21.45085937 -24.505 20.90171875 -24.25 20.3359375 C-19.54116704 11.5363059 -12.85659485 5.38644206 -4 1 C-2 0 -2 0 0 0 Z M-14.2109375 16.140625 C-17.22246092 19.27050523 -20 23.54013497 -20 28 C-15.87916485 26.68946229 -14.07158933 25.32262014 -11.75 21.6875 C-11.24984375 20.92824219 -10.7496875 20.16898438 -10.234375 19.38671875 C-8.94904342 16.9014732 -8.40967869 14.75557688 -8 12 C-10.34591628 12 -12.53362191 14.69109301 -14.2109375 16.140625 Z M-34 24 C-35.98807394 29.96422183 -35.29811043 35.25472393 -33 41 C-32.34 40.67 -31.68 40.34 -31 40 C-29.35950707 33.94279535 -30.70192538 29.72571134 -33 24 C-33.33 24 -33.66 24 -34 24 Z M-40 42 C-39 44 -39 44 -39 44 Z M-24 48 C-25.59039367 50.26437147 -26.75628593 52.51257186 -28 55 C-23.99546349 53.62701605 -21.08314867 51.91649198 -18 49 C-16.66701026 46.38181544 -16.66701026 46.38181544 -16 44 C-19.44695244 44 -21.34556241 45.92953868 -24 48 Z M-43 51 C-43.23396451 56.73213046 -43.08898273 61.61262348 -41 67 C-40.01 67.66 -39.02 68.32 -38 69 C-37.664679 62.85244834 -38.31970154 57.61879081 -41 52 C-41.66 51.67 -42.32 51.34 -43 51 Z M-28 73 C-29.62876796 75.28536505 -30.77083584 77.44712058 -32 80 C-31.67 80.66 -31.34 81.32 -31 82 C-26.89601599 78.72805658 -23.28938344 75.84810612 -21 71 C-21 70.34 -21 69.68 -21 69 C-24.27074772 69 -25.65427441 70.82182624 -28 73 Z M-48 81 C-46.44450335 87.98359528 -46.44450335 87.98359528 -42.3125 93.625 C-41.549375 94.07875 -40.78625 94.5325 -40 95 C-40.37577711 88.86230717 -42.0419407 85.73036356 -46 81 C-46.66 81 -47.32 81 -48 81 Z M-24 95 C-28.19522328 100.16335173 -29.65021857 103.35415281 -30 110 C-26.19976159 106.59978668 -24.07187282 104.03780224 -23 99 C-23.42033566 96.86401105 -23.42033566 96.86401105 -24 95 Z M-45 112 C-42.77446703 117.12245577 -40.87987997 120.91797054 -36 124 C-35.34 124 -34.68 124 -34 124 C-35.37298395 119.99546349 -37.08350802 117.08314867 -40 114 C-42.61818456 112.66701026 -42.61818456 112.66701026 -45 112 Z " fill="#080808" transform="translate(217,160)"/>
<path d="M0 0 C4.48123147 -0.44812315 6.49494009 -0.33353013 10.3125 2.1875 C13.49707818 5.52019809 15.0092414 7.46785604 14.9921875 12.140625 C14.62802387 16.92225184 13.62917309 19.9367325 11 24 C11.495 25.485 11.495 25.485 12 27 C12.99 27.33 13.98 27.66 15 28 C17.05362055 22.91059256 18.43179252 18.45479185 19 13 C19.99 13 20.98 13 22 13 C30.77976554 22.48286792 34.6365828 31.96167595 34.2734375 44.76953125 C33.95977792 48.47519509 33.31982521 51.53545882 32 55 C32.804375 55.78375 33.60875 56.5675 34.4375 57.375 C38.03484381 61.0600839 38.17591791 62.82507108 38.25 67.875 C38.27578125 68.92429687 38.3015625 69.97359375 38.328125 71.0546875 C37.95774848 74.37925769 37.3785484 75.68024718 35 78 C32.95840589 78.79238108 30.97788124 79.24127705 28.83984375 79.703125 C25.78105916 81.85921095 25.67167344 85.49417775 25 89 C24.36847657 93.17859108 23.8700631 97.36927636 23.37890625 101.56640625 C23.08038511 104.0150114 22.78154741 106.46357798 22.48242188 108.91210938 C22.01985276 112.74521132 21.56059071 116.57864554 21.10717773 120.4128418 C20.6653144 124.13187802 20.21044266 127.84914679 19.75390625 131.56640625 C19.62254776 132.70823868 19.49118927 133.85007111 19.35585022 135.02650452 C18.49842797 141.93139823 17.38495146 147.47027184 13.4375 153.3125 C9.07236209 156.33451855 3.98019024 157.44245145 -1.2890625 156.66015625 C-5.46546204 155.33841183 -7.73378892 153.73978369 -10.11621094 149.91064453 C-11.94034944 145.9670788 -12.34776387 141.70739654 -12.9375 137.4375 C-13.09589355 136.38135498 -13.25428711 135.32520996 -13.41748047 134.23706055 C-14.44319129 127.27927288 -15.36457346 120.30724185 -16.29296875 113.3359375 C-16.40356125 112.50806229 -16.51415375 111.68018707 -16.62809753 110.82722473 C-17.17951121 106.69203653 -17.72270773 102.55609211 -18.24975586 98.41772461 C-18.45027262 96.87873235 -18.65087117 95.33975075 -18.8515625 93.80078125 C-18.93790451 93.10169647 -19.02424652 92.40261169 -19.11320496 91.68234253 C-19.65328201 87.59157933 -20.45021 83.8314958 -22 80 C-23.80574904 78.83500997 -23.80574904 78.83500997 -25.9375 78.4375 C-28.82434626 77.52062505 -29.8639695 77.1445324 -32 74.875 C-33.57683289 70.34160544 -34.2000763 65.60016532 -32.1328125 61.12109375 C-30.90953602 59.26832098 -29.57253322 57.57253322 -28 56 C-27.86653208 53.81409212 -27.76872642 51.62597189 -27.6875 49.4375 C-27.22013416 42.13769066 -25.61545423 37.45613595 -21.25 31.6875 C-19.21545835 27.31323546 -19.77556279 22.74643141 -20 18 C-18.15625 17.375 -18.15625 17.375 -16 17 C-14.33333333 18.33333333 -12.66666667 19.66666667 -11 21 C-7.17394131 21 -4.67449797 18.54077307 -2 16 C0.54845902 12.99952073 2.1278622 10.57445999 1.80078125 6.546875 C1.30589426 4.31461877 0.72718234 2.16680684 0 0 Z M-0.9375 23.6875 C-1.48857422 24.21794922 -2.03964844 24.74839844 -2.60742188 25.29492188 C-6.6910053 29.33881068 -8.78078451 32.33717656 -9.265625 38.2265625 C-9.26046875 39.34804687 -9.2553125 40.46953125 -9.25 41.625 C-9.25515625 42.75164062 -9.2603125 43.87828125 -9.265625 45.0390625 C-9.22114483 48.18626454 -9.22114483 48.18626454 -7 51 C-4.71003666 51.40003297 -4.71003666 51.40003297 -2.0546875 51.2578125 C-0.56195313 51.23654297 -0.56195313 51.23654297 0.9609375 51.21484375 C2.00507813 51.18519531 3.04921875 51.15554687 4.125 51.125 C10.87225067 50.98017265 17.32121994 50.95894316 24 52 C23.84002944 45.60117772 20.40737056 42.20990772 16 38 C13.42172283 35.91813739 10.81655789 33.90637825 8.13671875 31.95703125 C5.70489351 29.72971051 4.8288949 28.1766032 4 25 C4.875 21.1875 4.875 21.1875 6 18 C3.56810143 18 0.80462199 21.96156498 -0.9375 23.6875 Z M24 28 C23.01 28.99 22.02 29.98 21 31 C22.3937282 35.43458973 24.60582235 37.87378374 28 41 C27.71812064 39.20676747 27.4241719 37.41542874 27.125 35.625 C26.88136719 34.12839844 26.88136719 34.12839844 26.6328125 32.6015625 C26.2041198 29.8574885 26.2041198 29.8574885 24 28 Z M-16 37 C-19.92009673 41.65511487 -21.25504687 43.87887503 -21 50 C-20.67 50.66 -20.34 51.32 -20 52 C-18.35 52 -16.7 52 -15 52 C-15 47.05 -15 42.1 -15 37 C-15.33 37 -15.66 37 -16 37 Z M-26 64 C-26.33 64.99 -26.66 65.98 -27 67 C-25.62476865 66.85636473 -24.24982598 66.70996483 -22.875 66.5625 C-21.72644531 66.44068359 -21.72644531 66.44068359 -20.5546875 66.31640625 C-18.78081088 66.09670593 -17.01375851 65.81693364 -15.25634766 65.49072266 C-9.37062217 64.60375998 -3.44116789 64.81540664 2.5 64.8125 C3.78648437 64.80025391 5.07296875 64.78800781 6.3984375 64.77539062 C15.1412274 64.76219728 23.38802369 65.52597574 32 67 C31.1988745 63.19141148 30.08691847 61.47696036 27 59 C18.81484031 56.42788325 9.51694953 56.43238351 1 56 C0.12472656 55.93425781 -0.75054687 55.86851562 -1.65234375 55.80078125 C-10.17794011 55.4000644 -20.37090957 57.14036422 -26 64 Z M-15 71 C-14.43489238 80.26947318 -13.53444329 89.427552 -12.2578125 98.625 C-12.08877411 99.85613525 -11.91973572 101.08727051 -11.74557495 102.35571289 C-11.39000951 104.93068462 -11.03192205 107.50530927 -10.67138672 110.07958984 C-10.12270533 114.01646459 -9.59043932 117.95535123 -9.05859375 121.89453125 C-8.709334 124.40899336 -8.35910794 126.92332149 -8.0078125 129.4375 C-7.85144318 130.60941895 -7.69507385 131.78133789 -7.53396606 132.98876953 C-6.44082867 140.88221455 -6.44082867 140.88221455 -3 148 C0.69486103 150.46324069 2.63293092 150.38991688 7 150 C10.36297931 147.91263353 10.90170033 144.65515129 12 141 C12.40323669 138.78343473 12.75069104 136.55627074 13.05322266 134.32373047 C13.14129684 133.68554382 13.22937103 133.04735718 13.32011414 132.38983154 C13.60707805 130.29967585 13.88573492 128.20850925 14.1640625 126.1171875 C14.36255583 124.65555061 14.5614865 123.19397306 14.76083374 121.73245239 C15.17617091 118.67838916 15.58764379 115.62383947 15.99609375 112.56884766 C16.5193083 108.65630774 17.04997997 104.7448259 17.58326149 100.83364677 C17.99379901 97.81935883 18.40150321 94.80469338 18.80823898 91.78989029 C19.0029905 90.34732893 19.19836148 88.90485105 19.39436722 87.46245956 C19.66747611 85.44783194 19.93660987 83.43266664 20.20556641 81.41748047 C20.35941803 80.27197723 20.51326965 79.126474 20.67178345 77.94625854 C21.07381083 74.83151263 21.07381083 74.83151263 21 71 C14.77453231 70.08256266 8.72555145 69.84807044 2.4375 69.875 C1.53064453 69.87113281 0.62378906 69.86726563 -0.31054688 69.86328125 C-5.31506467 69.87053943 -10.06745305 70.14746102 -15 71 Z " fill="#080808" transform="translate(317,88)"/>
<path d="M0 0 C6.48480937 0.48941957 6.48480937 0.48941957 8.74609375 2.73046875 C10.2872553 5.51992314 10.18394882 6.93523842 9.75 10.0625 C9.64171875 10.91972656 9.5334375 11.77695313 9.421875 12.66015625 C9 15 9 15 8 18 C8.66 18 9.32 18 10 18 C10.33 15.36 10.66 12.72 11 10 C12.32 9.67 13.64 9.34 15 9 C15.96861464 10.20010745 16.9243885 11.41058244 17.875 12.625 C18.40867187 13.29789063 18.94234375 13.97078125 19.4921875 14.6640625 C23.36284522 20.66057369 23.10672077 26.08374575 22.77734375 32.9765625 C23.03047071 36.41376013 23.86223998 37.40844437 26 40 C26.64535841 42.75352923 26.62038611 45.23956639 26 48 C23.6875 50.3125 23.6875 50.3125 21 52 C18.41993455 54.17181182 17.59593483 55.60033925 17.15625 58.93310547 C17.04603516 59.7175705 16.93582031 60.50203552 16.82226562 61.31027222 C16.66274414 62.57594528 16.66274414 62.57594528 16.5 63.8671875 C16.37818359 64.73892609 16.25636719 65.61066467 16.13085938 66.50881958 C15.74193794 69.29605868 15.36923175 72.08508875 15 74.875 C14.51297784 78.54098322 14.01071004 82.20443894 13.5 85.8671875 C13.34047852 87.12678787 13.34047852 87.12678787 13.17773438 88.41183472 C12.55193168 92.90184322 11.85326206 96.32240395 9 100 C5.97455666 102.01696222 5.38932618 102.25811096 2 102.1875 C1.319375 102.18105469 0.63875 102.17460937 -0.0625 102.16796875 C-2 102 -2 102 -5 101 C-7.92111057 97.15530299 -8.77292564 93.23418701 -9.5 88.5625 C-9.62109131 87.8403833 -9.74218262 87.1182666 -9.86694336 86.37426758 C-10.58673254 81.97071507 -11.20204365 77.5563755 -11.78515625 73.1328125 C-11.91535156 72.14595459 -12.04554688 71.15909668 -12.1796875 70.14233398 C-12.43130351 68.20017291 -12.67503279 66.25697078 -12.91015625 64.31274414 C-13.02359375 63.41934326 -13.13703125 62.52594238 -13.25390625 61.60546875 C-13.35002197 60.81293701 -13.4461377 60.02040527 -13.54516602 59.20385742 C-14.03692895 56.82106407 -14.72792563 55.07196678 -16 53 C-17.64142963 51.9590934 -19.30712215 50.95495674 -21 50 C-23.41701092 45.16597816 -21.88414853 39.82839383 -20.3203125 34.94140625 C-19.97613281 33.91853516 -19.97613281 33.91853516 -19.625 32.875 C-19.40328125 32.18535156 -19.1815625 31.49570313 -18.953125 30.78515625 C-18.01737648 27.90635344 -17.03116451 25.07542244 -15.875 22.27734375 C-15.00805074 20.02095349 -14.61872231 18.08410273 -14.375 15.6875 C-14.189375 13.8621875 -14.189375 13.8621875 -14 12 C-11.41395559 11.1379852 -10.22047291 10.93216218 -7.5625 11.75 C-4.77723938 12.30453049 -4.77723938 12.30453049 -2.1875 10 C0.46051828 6.36843207 0.43089173 4.39509566 0 0 Z M0 17 C-3.69205562 20.80743236 -4.70152841 23.72700187 -5 29 C-4.67 29.66 -4.34 30.32 -4 31 C-0.43913342 32.18695553 2.97331024 32.35095418 6.6875 32.5625 C7.38939453 32.60568359 8.09128906 32.64886719 8.81445312 32.69335938 C10.54275206 32.7991736 12.2713511 32.90006581 14 33 C12.66539457 28.7713317 11.10943092 26.96292975 7.5 24.4375 C4.32912473 22.20862176 2.46156311 20.63007794 1 17 C0.67 17 0.34 17 0 17 Z M-14 41 C-14 41.33 -14 41.66 -14 42 C-12.93523437 41.91621094 -11.87046875 41.83242187 -10.7734375 41.74609375 C-1.36837571 41.06582947 7.59832485 41.03152316 17 42 C14.78038298 39.44744042 13.2929768 38.64102377 10 38 C7.21553161 37.85359721 4.47227111 37.76925512 1.6875 37.75 C0.95337891 37.729375 0.21925781 37.70875 -0.53710938 37.6875 C-5.76663689 37.65037824 -9.32384339 38.65265586 -14 41 Z M-8 47 C-7.33129097 57.53793201 -5.97750807 67.87323864 -4.4375 78.3125 C-4.20077511 79.93939544 -3.96444448 81.5663483 -3.72851562 83.19335938 C-3.15687471 87.12958122 -2.57994613 91.0649936 -2 95 C0.91652174 95.16681109 0.91652174 95.16681109 4 95 C6.90673908 92.09326092 6.87595608 88.73303288 7.4375 84.8125 C7.56165283 83.98548584 7.68580566 83.15847168 7.8137207 82.30639648 C8.83443704 75.40072252 9.76941507 68.48247588 10.6875 61.5625 C10.81890381 60.57419189 10.95030762 59.58588379 11.08569336 58.56762695 C11.20565674 57.63909912 11.32562012 56.71057129 11.44921875 55.75390625 C11.55580811 54.93220947 11.66239746 54.1105127 11.7722168 53.26391602 C12.0667395 50.71590675 12.0667395 50.71590675 12 47 C5.4 47 -1.2 47 -8 47 Z " fill="#080808" transform="translate(257,115)"/>
<path d="M0 0 C6.23076923 0.46153846 6.23076923 0.46153846 8.875 2.3125 C10.54538089 4.81807133 11 7.01557288 11 10 C12.32 9.67 13.64 9.34 15 9 C15.96548612 10.2235563 16.92205898 11.45414811 17.875 12.6875 C18.40867187 13.37199219 18.94234375 14.05648437 19.4921875 14.76171875 C23.48687758 20.69166024 23.08492273 25.66321229 22.77734375 32.625 C23.02213334 36.33549482 23.94866821 37.97034074 26 41 C26.56545409 44.8773995 26.33346166 46.46407948 24.25 49.8125 C21.94162817 52.05675039 21.02670903 52.40864718 18 53 C17.91959473 53.648479 17.83918945 54.29695801 17.75634766 54.96508789 C17.10574671 60.20655561 16.45059565 65.44740011 15.7890625 70.6875 C15.327145 74.35226391 14.87799736 78.01737319 14.4609375 81.6875 C12.7814635 95.80646783 12.7814635 95.80646783 8.3125 100.9375 C4.17820985 102.83703872 -0.05820638 102.56209815 -4.375 101.3125 C-8.22608425 98.20200887 -8.50777566 92.69629164 -9.21875 88.08203125 C-9.32215698 87.42474533 -9.42556396 86.76745941 -9.53210449 86.09025574 C-9.86030194 83.99849261 -10.18058351 81.90562033 -10.5 79.8125 C-11.31515384 74.53866427 -12.14996973 69.26835055 -13 64 C-13.15645996 62.96875 -13.31291992 61.9375 -13.47412109 60.875 C-13.62445801 59.98425781 -13.77479492 59.09351563 -13.9296875 58.17578125 C-14.05069824 57.42079346 -14.17170898 56.66580566 -14.29638672 55.88793945 C-15.43389049 52.83578238 -17.80477946 51.86029715 -20.5 50.265625 C-22 49 -22 49 -22.625 45.125 C-22.25793107 41.03371086 -20.69992022 37.72674819 -19 34 C-18.43497522 31.81359975 -17.98599781 29.61878335 -17.53515625 27.40625 C-16.77006614 23.9661368 -15.7290051 20.62545164 -14.68359375 17.26171875 C-14.05620071 15.18594407 -13.50652259 13.10809876 -13 11 C-10.23723823 11.52268466 -7.6739124 12.10869587 -5 13 C-2.29199403 10.96050874 -2.29199403 10.96050874 0 8 C-0.14612895 4.30567489 -0.14612895 4.30567489 -1 1 C-0.67 0.67 -0.34 0.34 0 0 Z M0 17 C-4.17784019 21.17784019 -4.61581313 24.33324362 -5 30 C-1.27933528 32.48044315 1.86540474 32.44381173 6.1875 32.625 C7.31188477 32.68300781 7.31188477 32.68300781 8.45898438 32.7421875 C10.30559199 32.83628216 12.1527619 32.91922319 14 33 C12.71809013 29.06792412 11.51250719 27.26145723 8.0625 25 C4.74227763 22.6782503 2.84056966 20.68113932 1 17 C0.67 17 0.34 17 0 17 Z M-12 30 C-11 32 -11 32 -11 32 Z M-14 41 C-10.22890063 42.27593588 -6.86714893 41.89166397 -2.9375 41.5625 C3.3879784 41.06770496 9.65631908 40.88130327 16 41 C12.00302641 37.00302641 6.45666535 37.78445341 1.125 37.75 C0.33480469 37.729375 -0.45539063 37.70875 -1.26953125 37.6875 C-6.28948096 37.65408935 -9.60073739 38.3123476 -14 41 Z M-8 47 C-7.31034566 56.17169178 -6.27532095 65.25855406 -5.0625 74.375 C-4.89116423 75.71482946 -4.71993978 77.05467315 -4.54882812 78.39453125 C-4.29456055 80.31458984 -4.29456055 80.31458984 -4.03515625 82.2734375 C-3.8844165 83.42247559 -3.73367676 84.57151367 -3.57836914 85.75537109 C-2.99874215 89.00705647 -2.22616014 91.93332447 -1 95 C0.87957244 96.1576585 0.87957244 96.1576585 3 96 C6.17492793 94.35074395 6.17492793 94.35074395 6.67602539 91.64013672 C6.81516357 90.66318848 6.95430176 89.68624023 7.09765625 88.6796875 C7.2584668 87.59389404 7.41927734 86.50810059 7.58496094 85.3894043 C7.82134277 83.64977417 7.82134277 83.64977417 8.0625 81.875 C8.23168945 80.70042236 8.40087891 79.52584473 8.57519531 78.31567383 C9.06530338 74.87901527 9.53610097 71.44028344 10 68 C10.12294434 67.10490723 10.24588867 66.20981445 10.37255859 65.28759766 C11.20734909 59.17203975 12 53.18608413 12 47 C5.4 47 -1.2 47 -8 47 Z " fill="#080808" transform="translate(379,115)"/>
<path d="M0 0 C0.66 0 1.32 0 2 0 C5.61373518 6.17832143 7.32414746 11.77151173 7 19 C5.53781513 23.6302521 5.53781513 23.6302521 3 25.375 C-0.75123792 26.1565079 -3.92524338 25.73571714 -7.6953125 25.19140625 C-10.15958033 24.83449265 -10.15958033 24.83449265 -13 26 C-14.07254351 28.26225382 -14.07254351 28.26225382 -15 31 C-15.98482022 33.00751815 -16.98152514 35.00934459 -18 37 C-17.10152344 37.09152344 -16.20304687 37.18304688 -15.27734375 37.27734375 C-9.55880779 38.09427746 -4.08286462 39.9080287 1.4375 41.5625 C2.55060547 41.89185547 3.66371094 42.22121094 4.81054688 42.56054688 C7.54169158 43.3693408 10.27141986 44.18260413 13 45 C9.01769717 53.43551513 -1.87474525 57.23394768 -9.79101562 61.48486328 C-10.54833984 61.89591309 -11.30566406 62.30696289 -12.0859375 62.73046875 C-12.7670459 63.09551514 -13.4481543 63.46056152 -14.14990234 63.83666992 C-16.05602033 65.03522524 -17.47593298 66.35115036 -19 68 C-20 67 -20 67 -20.09765625 64.71484375 C-20.08605469 63.79832031 -20.07445312 62.88179687 -20.0625 61.9375 C-20.05347656 61.01839844 -20.04445313 60.09929687 -20.03515625 59.15234375 C-20.02355469 58.44207031 -20.01195312 57.73179687 -20 57 C-13.25 53 -13.25 53 -11 53 C-11 49.7 -11 46.4 -11 43 C-13.24609375 43.09765625 -15.4921875 43.1953125 -17.73828125 43.29296875 C-20 43 -20 43 -21.76953125 41.7890625 C-24.17886802 38.28596332 -23.47019369 34.06654003 -23 30 C-21.67630622 26.49221149 -20.17352213 24.21318433 -17.8125 21.3125 C-15.69155917 19.09616618 -15.69155917 19.09616618 -16 16 C-18.31 16.66 -20.62 17.32 -23 18 C-23.33 19.32 -23.66 20.64 -24 22 C-27 21 -27 21 -28.125 18.9375 C-29.21514884 15.27771461 -29.61366463 11.7989645 -30 8 C-28.90558594 8.22171875 -27.81117188 8.4434375 -26.68359375 8.671875 C-21.12336659 9.36307362 -16.35263387 7.84840497 -11.0625 6.25 C-10.10537109 5.98445312 -9.14824219 5.71890625 -8.16210938 5.4453125 C-4.50912336 4.41268215 -4.50912336 4.41268215 -1 3 C-0.67 2.01 -0.34 1.02 0 0 Z M-6.75 12.5 C-7.94882812 12.91765625 -7.94882812 12.91765625 -9.171875 13.34375 C-9.77515625 13.5603125 -10.3784375 13.776875 -11 14 C-9.97085051 17.66290088 -9.97085051 17.66290088 -7.1875 20 C-4.09670276 20 -2.48426641 18.76513666 0 17 C0.66 16.34 1.32 15.68 2 15 C2 13.68 2 12.36 2 11 C-1.58063513 11 -3.47487986 11.34407525 -6.75 12.5 Z M-6 45 C-6 46.65 -6 48.3 -6 50 C-4.35 49.01 -2.7 48.02 -1 47 C-3.38162009 45.58614089 -3.38162009 45.58614089 -6 45 Z " fill="#080808" transform="translate(524,178)"/>
<path d="M0 0 C1.64820195 2.60242414 2 3.86248779 2 7 C-0.64 7 -3.28 7 -6 7 C-6 8.32 -6 9.64 -6 11 C-5.195625 11.268125 -4.39125 11.53625 -3.5625 11.8125 C-2.386875 12.204375 -1.21125 12.59625 0 13 C0.74636719 13.20625 1.49273437 13.4125 2.26171875 13.625 C6.03751046 14.72341213 8.57196614 15.62416539 11.5625 18.25 C13.42063851 21.80469976 13.49569182 24.03446546 13 28 C10.83842944 32.91052442 7.40784028 34.926545 2.8125 37.3125 C2.17763672 37.67150391 1.54277344 38.03050781 0.88867188 38.40039062 C-5.44034146 41.7600792 -11.02871786 41.74282053 -18 40 C-18.763125 39.814375 -19.52625 39.62875 -20.3125 39.4375 C-20.869375 39.293125 -21.42625 39.14875 -22 39 C-22.05167527 41.42267086 -22.05167527 41.42267086 -21 44 C-17.52692672 45.86983745 -17.52692672 45.86983745 -14 47 C-15.22053859 50.66161578 -16.36782304 51.16270474 -19.5625 53.1875 C-20.38878906 53.71730469 -21.21507812 54.24710938 -22.06640625 54.79296875 C-22.70449219 55.19128906 -23.34257812 55.58960938 -24 56 C-24.23332031 55.51273438 -24.46664062 55.02546875 -24.70703125 54.5234375 C-27.47622067 49.1416206 -30.81891285 44.34612606 -34.5 39.5625 C-35.19379761 38.63993408 -35.19379761 38.63993408 -35.90161133 37.69873047 C-38.60896703 34.25021757 -40.61561528 32.19935162 -45 31 C-42.66743027 25.69139303 -38.51865581 22.3852607 -33.5 19.625 C-30.10417592 18.77604398 -27.48897447 18.56387819 -24 19 C-21.05305169 21.050051 -19.35851443 22.56328662 -18.47265625 26.11328125 C-18.21952749 28.0654935 -18.09996684 30.03398538 -18 32 C-13.05 32.99 -8.1 33.98 -3 35 C-3.495 32.03 -3.495 32.03 -4 29 C-1.98177083 29.29296875 0.03645833 29.5859375 2.0546875 29.87890625 C4.08140667 30.1684297 4.08140667 30.1684297 6 29 C5.89386164 26.54775306 5.89386164 26.54775306 5 24 C2.62009875 22.61812185 0.19163547 22.0528755 -2.44921875 21.32421875 C-3.33222656 21.07285156 -4.21523437 20.82148437 -5.125 20.5625 C-5.97320312 20.33691406 -6.82140625 20.11132812 -7.6953125 19.87890625 C-10.20579443 18.92151908 -11.38125024 18.12966765 -13 16 C-13.94399076 11.81946949 -14.44133592 9.29458537 -13.0625 5.25 C-9.5550117 1.42364913 -5.15069682 -1.71689894 0 0 Z M-34 26 C-32.68775452 29.93673644 -31.08089673 32.22719294 -28 35 C-26.68 34.34 -25.36 33.68 -24 33 C-24.26656572 30.06556598 -24.26656572 30.06556598 -25 27 C-28.33057451 24.77961699 -30.28833195 24.14416598 -34 26 Z " fill="#080808" transform="translate(221,58)"/>
<path d="M0 0 C3 1 3 1 4.96484375 4.31640625 C7.93168823 10.63805633 9.59007101 17.4164877 11.44335938 24.12695312 C11.73146484 25.12533203 12.01957031 26.12371094 12.31640625 27.15234375 C12.56849854 28.05976318 12.82059082 28.96718262 13.08032227 29.90209961 C13.38381592 30.59440674 13.68730957 31.28671387 14 32 C15.485 32.495 15.485 32.495 17 33 C16.69964844 31.97519531 16.39929688 30.95039063 16.08984375 29.89453125 C15.70514708 28.53401862 15.32106479 27.17333217 14.9375 25.8125 C14.73833984 25.13896484 14.53917969 24.46542969 14.33398438 23.77148438 C13.23690189 19.82583684 12.78218749 16.94448706 14 13 C15.65 13 17.3 13 19 13 C19.48919922 14.57587891 19.48919922 14.57587891 19.98828125 16.18359375 C22.25786372 23.47961088 24.54484275 30.76374705 27 38 C28.32 38 29.64 38 31 38 C30.76023438 37.01257813 30.52046875 36.02515625 30.2734375 35.0078125 C29.97695312 33.72648437 29.68046875 32.44515625 29.375 31.125 C29.07335937 29.84882813 28.77171875 28.57265625 28.4609375 27.2578125 C28.30882812 26.18273437 28.15671875 25.10765625 28 24 C28.66 23.34 29.32 22.68 30 22 C31.32 22 32.64 22 34 22 C34.18062988 22.59014893 34.36125977 23.18029785 34.54736328 23.78833008 C35.3830848 26.4710331 36.25349229 29.141219 37.125 31.8125 C37.40859375 32.74126953 37.6921875 33.67003906 37.984375 34.62695312 C39.6340739 40.12420706 39.6340739 40.12420706 43.90625 43.58203125 C44.9271875 44.04996094 45.948125 44.51789063 47 45 C49.15744618 47.76202161 50.74611519 50.77962675 52.375 53.875 C52.82488281 54.67808594 53.27476562 55.48117187 53.73828125 56.30859375 C57.50327739 63.25495441 57.50327739 63.25495441 57 68 C55 69.8125 55 69.8125 53 71 C49.88487857 66.13510824 47.00570744 61.23990477 44.40625 56.078125 C41.30619031 51.49692568 37.09363162 49.40629342 32 47.59765625 C30.865625 47.18193359 29.73125 46.76621094 28.5625 46.33789062 C26.18873706 45.48807308 23.81373328 44.64171351 21.4375 43.79882812 C9.14749067 39.2808531 9.14749067 39.2808531 5.8125 32.6328125 C5.544375 31.80523437 5.27625 30.97765625 5 30.125 C4.68546875 29.17367188 4.3709375 28.22234375 4.046875 27.2421875 C3.70140625 26.17226563 3.3559375 25.10234375 3 24 C2.55038001 22.73052399 2.09708707 21.46234441 1.640625 20.1953125 C1.17650452 18.8804125 0.71295768 17.56530986 0.25 16.25 C-0.17796875 15.03828125 -0.6059375 13.8265625 -1.046875 12.578125 C-2.03953281 8.85158996 -2.32136803 5.83751241 -2 2 C-1.34 1.34 -0.68 0.68 0 0 Z " fill="#080808" transform="translate(104,277)"/>
<path d="M0 0 C1.59375 1.05078125 1.59375 1.05078125 3 3 C2.67658631 5.5717608 2.2179153 7.72258885 1.5 10.1875 C1.30784912 10.88786377 1.11569824 11.58822754 0.91772461 12.30981445 C0.50610904 13.78981576 0.08519976 15.26725895 -0.34423828 16.7421875 C-0.9907573 18.96817704 -1.60382184 21.20154636 -2.21484375 23.4375 C-2.61994389 24.85486975 -3.02741907 26.27156329 -3.4375 27.6875 C-3.61796875 28.34580811 -3.7984375 29.00411621 -3.984375 29.68237305 C-5.40193922 34.35274087 -7.35434943 36.81868249 -11 40 C-13.96679688 41.40625 -13.96679688 41.40625 -17.21875 42.5 C-18.98798828 43.11875 -18.98798828 43.11875 -20.79296875 43.75 C-23.26432292 44.58333333 -25.73567708 45.41666667 -28.20703125 46.25 C-29.38652344 46.6625 -30.56601562 47.075 -31.78125 47.5 C-32.85439453 47.8609375 -33.92753906 48.221875 -35.03320312 48.59375 C-40.9735034 51.40942887 -43.74688517 55.90819657 -46.625 61.625 C-50.30403037 68.89982477 -50.30403037 68.89982477 -53 71 C-53.66 71 -54.32 71 -55 71 C-56.56944697 67.86110607 -56.29053148 65.4863778 -56 62 C-54.88932616 59.07308103 -53.3980159 56.44361814 -51.8125 53.75 C-51.42513672 53.04359375 -51.03777344 52.3371875 -50.63867188 51.609375 C-48.32484632 47.57069768 -46.43647211 44.88786047 -42 43 C-41.01 43 -40.02 43 -39 43 C-38.896875 42.05125 -38.79375 41.1025 -38.6875 40.125 C-37.55150555 32.46870862 -36.18209881 26.01251255 -30 21 C-28 23 -28 23 -27.6875 26.0625 C-28.05829829 30.73455841 -29.3411642 34.64555601 -31 39 C-28.525 38.505 -28.525 38.505 -26 38 C-25.82984375 37.34515625 -25.6596875 36.6903125 -25.484375 36.015625 C-24.10876582 30.83513937 -22.65522327 25.68061864 -21.0625 20.5625 C-20.76472656 19.59441406 -20.46695313 18.62632812 -20.16015625 17.62890625 C-18.87739345 14.72217437 -17.36529564 13.08876838 -15 11 C-13.4375 12 -13.4375 12 -12 14 C-12.12802696 21.04148257 -14.6436808 27.4242255 -17 34 C-15.02 33.505 -15.02 33.505 -13 33 C-12.85304688 32.41476562 -12.70609375 31.82953125 -12.5546875 31.2265625 C-10.91377164 24.94581558 -9.0429795 18.74324123 -7.0625 12.5625 C-6.82192871 11.78148926 -6.58135742 11.00047852 -6.33349609 10.19580078 C-4.9182968 5.86005084 -3.65704216 2.96196719 0 0 Z " fill="#080808" transform="translate(534,277)"/>
<path d="M0 0 C0.99 0.66 1.98 1.32 3 2 C2.67 4.31 2.34 6.62 2 9 C-1 8 -1 8 -3 5 C-4.65 5.33 -6.3 5.66 -8 6 C-6.79538977 10.9690172 -3.70651595 13.2041886 0.125 16.25390625 C3.18572021 19.10420195 3.9238256 21.3017347 4.375 25.4375 C3.93060536 29.65924908 3.14824425 31.18314989 0 34 C-5.52780949 35.40819197 -11.21179521 35.11237917 -16.875 35.0625 C-18.33679688 35.05573242 -18.33679688 35.05573242 -19.828125 35.04882812 C-22.21877668 35.03710924 -24.6093965 35.01917596 -27 35 C-28.32 32.36 -29.64 29.72 -31 27 C-33.64 27 -36.28 27 -39 27 C-39.66 29.64 -40.32 32.28 -41 35 C-40.01 35.33 -39.02 35.66 -38 36 C-38 36.66 -38 37.32 -38 38 C-44.435 38.495 -44.435 38.495 -51 39 C-50.113125 37.47375 -49.22625 35.9475 -48.3125 34.375 C-44.74819027 27.37247639 -43.23085602 20.16147659 -41.73754883 12.47998047 C-41.45947388 11.09576904 -41.45947388 11.09576904 -41.17578125 9.68359375 C-41.02020752 8.85400146 -40.86463379 8.02440918 -40.7043457 7.16967773 C-39.91275113 4.73123718 -38.93667607 3.63903186 -37 2 C-32.01988251 7.53947851 -28.65306546 13.66866684 -25.10546875 20.1875 C-22.5702558 24.71517608 -20.44717945 28.08355261 -16 31 C-16 29.02 -16 27.04 -16 25 C-15.34 24.67 -14.68 24.34 -14 24 C-13.01 25.98 -12.02 27.96 -11 30 C-8.69 30 -6.38 30 -4 30 C-5.20223074 23.86862324 -6.95051566 21.91592663 -12 18 C-14.8482237 14.48719077 -15.67105321 11.38817071 -15.46875 6.9375 C-14.79156641 4.13847448 -13.24273866 2.48102591 -10.921875 0.83984375 C-7.38793199 -0.70446062 -3.75797477 -0.68001448 0 0 Z M-37 16 C-38.29633621 17.06645115 -38.29633621 17.06645115 -38.0625 19.5625 C-38.041875 20.366875 -38.02125 21.17125 -38 22 C-36.68 22 -35.36 22 -34 22 C-34.66 20.02 -35.32 18.04 -36 16 C-36.33 16 -36.66 16 -37 16 Z " fill="#0A0A0A" transform="translate(328,31)"/>
<path d="M0 0 C0.16589226 6.02741895 -0.42885867 11.57494793 -1.5 17.5 C-1.71462891 18.73363281 -1.71462891 18.73363281 -1.93359375 19.9921875 C-2.28306912 21.99584627 -2.64068156 23.99808298 -3 26 C-2.37955811 25.63648437 -1.75911621 25.27296875 -1.11987305 24.8984375 C1.68705107 23.25889744 4.4996546 21.62935859 7.3125 20 C8.28896484 19.42765625 9.26542969 18.8553125 10.27148438 18.265625 C11.67817383 17.45351562 11.67817383 17.45351562 13.11328125 16.625 C13.97735596 16.12226562 14.84143066 15.61953125 15.73168945 15.1015625 C18 14 18 14 21 14 C20.44065922 21.12861967 16.67849704 27.12563409 13.50585938 33.38867188 C13.05919922 34.29294922 12.61253906 35.19722656 12.15234375 36.12890625 C11.73976318 36.94431885 11.32718262 37.75973145 10.90209961 38.59985352 C9.90186737 41.26109389 9.76052604 43.17943006 10 46 C10.33 46.66 10.66 47.32 11 48 C6.87248551 47.39301257 3.6678852 45.96189209 0 44 C1.75990784 38.08030998 4.39694605 32.58365008 7 27 C6.27554688 27.40992187 5.55109375 27.81984375 4.8046875 28.2421875 C3.83789062 28.78101562 2.87109375 29.31984375 1.875 29.875 C0.92367188 30.40867187 -0.02765625 30.94234375 -1.0078125 31.4921875 C-4 33 -4 33 -10 35 C-10 29.39 -10 23.78 -10 18 C-15.17420489 21.52229635 -15.17420489 21.52229635 -17.4375 26.875 C-17.293125 27.57625 -17.14875 28.2775 -17 29 C-20.94120709 28.43697042 -23.7508723 27.3208055 -27 25 C-27 24.34 -27 23.68 -27 23 C-25.865625 22.360625 -24.73125 21.72125 -23.5625 21.0625 C-18.66204792 18.14988562 -15.71839097 14.18546954 -12.24609375 9.73828125 C-4.25820257 0 -4.25820257 0 0 0 Z " fill="#080808" transform="translate(433,61)"/>
<path d="M0 0 C4.53136027 4.93118617 6.8726734 9.96917262 7.375 16.625 C6.98391746 22.39346751 5.42226084 25.98575596 1.375 30.125 C-4.17040868 33.85748661 -9.13255273 34.87877839 -15.66796875 33.91015625 C-20.94239308 32.48186081 -24.470033 29.38327833 -27.25 24.75 C-30.04240022 18.84299954 -31.02843236 13.63709915 -28.8125 7.25 C-25.57946786 2.34830611 -21.91145797 -0.76533036 -16.5625 -3.1875 C-10.5448179 -4.0034569 -5.25412191 -3.08394112 0 0 Z M-19.75 8.8125 C-22.38114866 11.90796901 -23.79511957 13.59357611 -24.25 17.6875 C-23.80634295 21.97618479 -23.11366314 23.48905008 -19.875 26.3125 C-14.50815967 28.10144678 -10.84433841 27.03388761 -5.9609375 24.6171875 C-1.98776877 22.13209695 0.36552463 19.21118844 2.125 14.8125 C2.125 11.21560845 1.12757687 9.28406568 -0.875 6.3125 C-7.94004767 1.98696061 -13.63269213 3.49310185 -19.75 8.8125 Z " fill="#080808" transform="translate(511.875,144.6875)"/>
<path d="M0 0 C3 1 3 1 5 4 C7.78589393 5.15925181 7.78589393 5.15925181 11.1015625 6.04296875 C12.31328125 6.39423828 13.525 6.74550781 14.7734375 7.10742188 C16.05722426 7.46768822 17.34107934 7.82771115 18.625 8.1875 C19.91695935 8.55822631 21.20863026 8.92995941 22.5 9.30273438 C25.66396392 10.21178371 28.83052733 11.11038449 32 12 C32 15 32 15 30.8125 16.32421875 C23.78622443 21.60906826 15.89575504 25.21473528 8 29 C7.34 29.33 6.68 29.66 6 30 C11.61 31.65 17.22 33.3 23 35 C23.33 34.01 23.66 33.02 24 32 C24.99 32.495 24.99 32.495 26 33 C25.34 36.3 24.68 39.6 24 43 C20.01285027 42.20257005 17.25748227 41.35765322 13.625 39.75 C6.55321392 36.72553288 -0.68362337 34.34883676 -8 32 C-8 30.68 -8 29.36 -8 28 C0.25 23.71 8.5 19.42 17 15 C10.4996966 11.7498483 5.15326323 10.74900831 -2 11 C-1.125 3.375 -1.125 3.375 0 0 Z " fill="#0A0A0A" transform="translate(119,168)"/>
<path d="M0 0 C1.25664978 2.90600261 2 4.79604584 2 8 C1.319375 7.835 0.63875 7.67 -0.0625 7.5 C-4.67035141 6.71568487 -8.47099763 6.32044339 -12.8125 8.25 C-15.16123513 10.1289881 -15.91447754 11.23639925 -17 14 C-17.19090535 19.08171868 -16.4252002 24.11810644 -13 28 C-7.9516128 30.91253108 -4.6495081 31.32929602 1 30 C1.66 29.67 2.32 29.34 3 29 C2.85969405 25.98342209 2.70648535 23.76158727 0.59765625 21.48828125 C-0.88904235 20.26743934 -2.44134898 19.12753478 -4 18 C-0.2440786 14.57068046 4.23466745 13.43570917 9 12 C8.9071875 13.299375 8.9071875 13.299375 8.8125 14.625 C8.76619541 18.05629935 8.76619541 18.05629935 10.5625 20.9375 C12.4458479 24.94984988 12.4471654 26.81083699 11 31 C5.78163942 36.38852451 -1.79734403 37.61223925 -9 38 C-13.35467879 37.71303599 -16.32398824 36.52578693 -19.8125 33.8125 C-23.58569856 28.96124471 -25.65064126 24.30073193 -25.3359375 18.04296875 C-24.52864959 13.1335318 -22.73588156 9.46384042 -18.90625 6.234375 C-12.62759017 1.92302858 -7.73137106 -0.30319102 0 0 Z " fill="#0A0A0A" transform="translate(399,398)"/>
<path d="M0 0 C7.22512475 3.7224038 11.93416574 8.31525383 14.5625 16.06640625 C14.93375 17.40703125 15.305 18.74765625 15.6875 20.12890625 C12.7175 21.44890625 9.7475 22.76890625 6.6875 24.12890625 C6.74550781 23.40445313 6.80351562 22.68 6.86328125 21.93359375 C7.28064939 15.33304581 7.28064939 15.33304581 4.625 9.50390625 C1.05496403 6.61749419 -0.72764134 5.97080768 -5.3125 6.12890625 C-10.35680965 8.18082882 -13.2221247 10.36589864 -15.65625 15.265625 C-16.75240975 18.37793572 -16.73349896 20.88120002 -16.3125 24.12890625 C-14.94252843 27.00037619 -14.94252843 27.00037619 -13.3125 29.12890625 C-8.89727891 27.85915653 -8.89727891 27.85915653 -5.3125 25.12890625 C-4.66482207 22.55829314 -4.66482207 22.55829314 -4.3125 20.12890625 C-0.52014006 21.61876194 1.49315887 23.71548672 3.6875 27.12890625 C3.58203125 29.0859375 3.58203125 29.0859375 2.6875 31.12890625 C-1.3965849 34.61054951 -5.66490942 36.9334294 -11 37.56640625 C-16.88659178 35.01184755 -19.94661926 29.86066773 -22.75 24.25390625 C-23.85654695 18.10642321 -24.40135078 12.43224445 -21.6875 6.69140625 C-15.84266259 0.38513431 -8.42952099 -3.17530943 0 0 Z " fill="#0A0A0A" transform="translate(485.3125,108.87109375)"/>
<path d="M0 0 C7.29728872 -0.48290881 12.85217836 -0.22181235 19 4 C21 6 21 6 21.3125 8.8125 C20.96840628 12.32225593 20.01272399 14.14864101 18 17 C18.495 17.680625 18.99 18.36125 19.5 19.0625 C21.36986505 22.72431906 21.50848176 24.93214595 21 29 C19.18253502 32.14561246 17.63795595 33.63317533 14.5 35.4375 C7.96323299 36.48805184 0.79374408 35.2711091 -5 32 C-4.69731201 31.2769165 -4.39462402 30.55383301 -4.08276367 29.80883789 C-2.4043168 25.45471585 -1.40111137 20.96872852 -0.3125 16.4375 C0.04424805 15.01920898 0.04424805 15.01920898 0.40820312 13.57226562 C0.62798828 12.66025391 0.84777344 11.74824219 1.07421875 10.80859375 C1.37718872 9.56807251 1.37718872 9.56807251 1.6862793 8.30249023 C2.12906937 5.05272124 1.44762956 2.89525913 0 0 Z M10 5 C9.34 7.97 8.68 10.94 8 14 C8.99 14.33 9.98 14.66 11 15 C12.60414215 13.81476003 12.60414215 13.81476003 14 12 C14.25069913 9.37429296 14.25069913 9.37429296 14 7 C12.68 6.34 11.36 5.68 10 5 Z M7 19 C6.63896464 20.81114432 6.28634496 22.62396823 5.9375 24.4375 C5.64166016 25.95150391 5.64166016 25.95150391 5.33984375 27.49609375 C5.22769531 28.32238281 5.11554688 29.14867187 5 30 C6.05310277 31.27003323 6.05310277 31.27003323 8.4375 31.1875 C11.16734675 31.26839983 11.16734675 31.26839983 13 29 C13.50007794 25.54213985 13.50007794 25.54213985 13 22 C11.2515605 19.97891823 11.2515605 19.97891823 9 19 C8.34 19 7.68 19 7 19 Z " fill="#080808" transform="translate(354,35)"/>
<path d="M0 0 C5.05255964 0.63156995 9.29593201 2.13459373 14 4 C13.67 4.99 13.34 5.98 13 7 C12.34 7 11.68 7 11 7 C10.82984375 7.52207031 10.6596875 8.04414063 10.484375 8.58203125 C8.72543551 13.92434214 6.81490438 19.18204272 4.76953125 24.421875 C3.96270961 27.12493226 3.73687979 29.19657377 4 32 C5.53813421 34.02896212 5.53813421 34.02896212 8 35 C10.99454474 35.17552322 10.99454474 35.17552322 14 34 C15.59750763 31.52752159 16.66668451 29.49535877 17.75 26.8125 C18.04003906 26.15185547 18.33007812 25.49121094 18.62890625 24.81054688 C22.15928097 17.64514186 22.15928097 17.64514186 22.125 10.125 C21.75375 9.42375 21.3825 8.7225 21 8 C22.62566606 8.47690204 24.25051311 8.95659666 25.875 9.4375 C26.77992188 9.70433594 27.68484375 9.97117187 28.6171875 10.24609375 C31 11 31 11 33 12 C32.62101562 12.74830078 32.62101562 12.74830078 32.234375 13.51171875 C31.22440322 15.54764288 30.241153 17.59207441 29.265625 19.64453125 C22.47055312 33.78389121 22.47055312 33.78389121 17 39 C12.63527918 40.45490694 8.36528406 40.90396005 4.02734375 39.24609375 C0.50233426 37.33764912 -1.882116 35.36879794 -4 32 C-5.79840392 24.80638431 -2.8610963 18.17437236 0.04077148 11.70996094 C1.55665456 8.15341531 2.07870453 6.33430687 1.1796875 2.515625 C0.79039062 1.68546875 0.40109375 0.8553125 0 0 Z " fill="#0A0A0A" transform="translate(241,398)"/>
<path d="M0 0 C2.7302389 -0.1083667 5.45614543 -0.18746694 8.1875 -0.25 C8.95642578 -0.28351563 9.72535156 -0.31703125 10.51757812 -0.3515625 C14.49237763 -0.4197994 16.52794781 -0.2811577 20.0234375 1.80078125 C22 4 22 4 22.4375 7.4375 C22.03919206 10.68086466 21.41701543 13.07740568 20 16 C20.61875 16.2475 21.2375 16.495 21.875 16.75 C24.49443701 18.2908453 25.13480643 19.08980346 26 22 C25.86999114 25.64024798 25.58847015 28.11570431 23.5546875 31.171875 C19.67566311 33.94769062 15.90716737 33.67303501 11.25 33.75 C8.1975 33.8325 5.145 33.915 2 34 C2.33 23.77 2.66 13.54 3 3 C2.01 2.67 1.02 2.34 0 2 C0 1.34 0 0.68 0 0 Z M11 4 C11 6.97 11 9.94 11 13 C12.32 12.67 13.64 12.34 15 12 C15 10.02 15 8.04 15 6 C13.68 5.34 12.36 4.68 11 4 Z M11 18 C9.87743869 20.24512262 9.86586238 21.51456649 9.875 24 C9.87242187 24.70125 9.86984375 25.4025 9.8671875 26.125 C9.88622764 28.09153775 9.88622764 28.09153775 11 30 C12.98 30 14.96 30 17 30 C18.21180661 28.24530924 18.21180661 28.24530924 19 26 C18.38257087 23.7999084 18.38257087 23.7999084 17.125 21.75 C16.73570312 21.04359375 16.34640625 20.3371875 15.9453125 19.609375 C15.47738281 18.81273437 15.47738281 18.81273437 15 18 C13.68 18 12.36 18 11 18 Z " fill="#080808" transform="translate(308,416)"/>
<path d="M0 0 C1.175625 0.45375 2.35125 0.9075 3.5625 1.375 C9.09072841 3.26161763 14.65400464 3.75378858 20.44921875 4.27734375 C25.52698918 5.31077338 29.68752229 7.99015856 33 12 C34.69255192 17.07765576 34.61250636 21.37685815 32.75 26.3125 C30.67858673 29.49359894 28.74586027 31.51790841 25.01953125 32.546875 C16.64790385 33.31736106 8.3609231 32.63046404 0 32 C0 32.66 0 33.32 0 34 C-0.99 34 -1.98 34 -3 34 C-2.67 29.71 -2.34 25.42 -2 21 C-1.01 21 -0.02 21 1 21 C1.33 21.66 1.66 22.32 2 23 C15.5260548 25.38483886 15.5260548 25.38483886 28 22 C29.01557588 18.6993784 29.1092904 17.32787119 28 14 C23.68502369 11.6112022 18.88506231 11.28540284 14.0625 10.75 C12.88397461 10.5953125 12.88397461 10.5953125 11.68164062 10.4375 C6.910592 9.89451873 3.52123845 10.05506917 -1 12 C-0.67 8.04 -0.34 4.08 0 0 Z " fill="#0A0A0A" transform="translate(107,211)"/>
<path d="M0 0 C4.12751449 0.60698743 7.3321148 2.03810791 11 4 C9.9171875 5.5159375 9.9171875 5.5159375 8.8125 7.0625 C6.31206644 11.06032788 4.64692586 15.24300004 3.125 19.6875 C2.8978833 20.32888916 2.6707666 20.97027832 2.43676758 21.63110352 C1.18290193 25.45626275 0.80203736 28.13250334 2 32 C6.15293703 33.8914704 6.15293703 33.8914704 10.46484375 33.0703125 C14.03200847 30.15721959 15.2247307 26.91003687 16.875 22.6875 C17.1946875 21.94048828 17.514375 21.19347656 17.84375 20.42382812 C19.6743946 15.89099291 20.37870397 12.87193705 19 8 C20.45903258 8.30921884 21.91720722 8.62248799 23.375 8.9375 C24.18710937 9.11152344 24.99921875 9.28554688 25.8359375 9.46484375 C28 10 28 10 30 11 C28.70788512 14.55331592 27.05411409 17.72067541 25.1328125 20.97265625 C23.82770132 23.30835522 22.70546398 25.70608566 21.5625 28.125 C19.23853199 32.83749069 16.83448475 36.58275762 12 39 C5.75937134 39.53798523 1.11737727 38.79979967 -4 35 C-7.10979591 30.6268495 -7.34078183 27.26859522 -7 22 C-6.22406516 19.22432891 -5.16814943 16.59662482 -4.0625 13.9375 C-2.1632502 9.27971104 -0.6211508 5.0399704 0 0 Z " fill="#0A0A0A" transform="translate(388,42)"/>
<path d="M0 0 C3 1.8125 3 1.8125 6 4 C6 4.99 6 5.98 6 7 C3.69 7.66 1.38 8.32 -1 9 C-1 9.99 -1 10.98 -1 12 C1.94236782 14.21168225 1.94236782 14.21168225 5 16 C5.598125 15.01 6.19625 14.02 6.8125 13 C7.534375 12.01 8.25625 11.02 9 10 C9.99 10 10.98 10 12 10 C13.6875 12.5 13.6875 12.5 15 15 C13.02 16.32 11.04 17.64 9 19 C9.99730136 21.4932534 10.65074531 22.77467439 12.9375 24.25 C15.10412484 25.17087153 15.10412484 25.17087153 18 25 C18.99 21.535 18.99 21.535 20 18 C21.65 18.33 23.3 18.66 25 19 C25.38112866 21.88445098 25.57513479 24.09645017 23.96875 26.62011719 C22.53808036 28.27534506 21.05078291 29.83183764 19.5 31.375 C18.97535156 31.92027344 18.45070312 32.46554688 17.91015625 33.02734375 C16.61998005 34.36443545 15.31171225 35.68402894 14 37 C10.65678045 35.88559348 9.93980381 35.02527657 7.75 32.375 C-0.92975759 21.47363487 -0.92975759 21.47363487 -13 16 C-8.93866463 10.40636594 -4.6208599 5.14036486 0 0 Z " fill="#0A0A0A" transform="translate(167,95)"/>
<path d="M0 0 C0.99 0.33 1.98 0.66 3 1 C3.81640625 2.7578125 3.81640625 2.7578125 4.5625 5.125 C6.6919392 10.89777659 9.8890863 15.63111718 13.38305664 20.64501953 C20 30.1751383 20 30.1751383 20 35 C12.65361055 34.03783805 5.43007254 32.92174373 -1.8125 31.375 C-7.36967383 30.22063926 -12.34010316 29.70211069 -18 30 C-16.77472971 25.94718288 -15.30119506 22.55639236 -13 19 C-10.25604871 19.62995791 -7.95700274 20.42427007 -5.3125 21.5 C-0.93534896 23.18986057 3.34218842 23.68732283 8 24 C6.94890486 22.24312628 5.88356877 20.49476874 4.8125 18.75 C4.22082031 17.77546875 3.62914062 16.8009375 3.01953125 15.796875 C0.95135139 12.93262591 -1.15279924 11.06532698 -4 9 C-3.35455571 5.51460083 -1.89865603 2.97180943 0 0 Z " fill="#0A0A0A" transform="translate(150,114)"/>
<path d="M0 0 C0.33 1.98 0.66 3.96 1 6 C-2.21451269 7.60725635 -5.43612536 7.05748185 -9 7 C-8.68192383 8.02939697 -8.68192383 8.02939697 -8.35742188 9.07958984 C-7.40205695 12.1771769 -6.45097706 15.27606317 -5.5 18.375 C-5.16613281 19.45523438 -4.83226562 20.53546875 -4.48828125 21.6484375 C-4.17246094 22.6796875 -3.85664063 23.7109375 -3.53125 24.7734375 C-3.23798828 25.72653809 -2.94472656 26.67963867 -2.64257812 27.66162109 C-2 30 -2 30 -2 32 C-0.68 32.66 0.64 33.32 2 34 C1.67 34.66 1.34 35.32 1 36 C-1.72265625 36.8515625 -1.72265625 36.8515625 -5.0625 37.625 C-6.16722656 37.88539062 -7.27195312 38.14578125 -8.41015625 38.4140625 C-9.26480469 38.60742188 -10.11945313 38.80078125 -11 39 C-10.9071875 37.58654297 -10.9071875 37.58654297 -10.8125 36.14453125 C-10.8125 31.05680431 -12.45032683 26.48660048 -14 21.6875 C-14.56473503 19.90044435 -15.12734453 18.11271516 -15.6875 16.32421875 C-15.93886719 15.54135498 -16.19023437 14.75849121 -16.44921875 13.9519043 C-17 12 -17 12 -17 10 C-17.54269531 10.28875 -18.08539063 10.5775 -18.64453125 10.875 C-19.71767578 11.431875 -19.71767578 11.431875 -20.8125 12 C-21.52019531 12.37125 -22.22789062 12.7425 -22.95703125 13.125 C-25 14 -25 14 -28 14 C-28 12.02 -28 10.04 -28 8 C-24.97968228 7.04003656 -21.95865354 6.08232942 -18.9375 5.125 C-18.08994141 4.85558594 -17.24238281 4.58617187 -16.36914062 4.30859375 C-2.76028963 0 -2.76028963 0 0 0 Z " fill="#0A0A0A" transform="translate(275,36)"/>
<path d="M0 0 C0.07605469 1.10472656 0.15210938 2.20945313 0.23046875 3.34765625 C0.91702585 8.80283937 3.04523046 13.47127279 5.3125 18.4375 C5.70373047 19.34693359 6.09496094 20.25636719 6.49804688 21.19335938 C6.88669922 22.05638672 7.27535156 22.91941406 7.67578125 23.80859375 C8.02552002 24.59032959 8.37525879 25.37206543 8.7355957 26.17749023 C9.8679098 28.18801237 9.8679098 28.18801237 12.14526367 28.76196289 C12.75732666 28.84051514 13.36938965 28.91906738 14 29 C14 29.66 14 30.32 14 31 C12.37750059 31.83819158 10.75191503 32.6704116 9.125 33.5 C8.22007812 33.9640625 7.31515625 34.428125 6.3828125 34.90625 C4 36 4 36 2 36 C1.68546875 34.96101563 1.3709375 33.92203125 1.046875 32.8515625 C-2.10491824 18.97269507 -2.10491824 18.97269507 -9.75 8.0625 C-10.4925 7.711875 -11.235 7.36125 -12 7 C-12 6.01 -12 5.02 -12 4 C-10.3767313 3.3291288 -8.75132422 2.66342971 -7.125 2 C-6.22007812 1.62875 -5.31515625 1.2575 -4.3828125 0.875 C-2 0 -2 0 0 0 Z " fill="#0A0A0A" transform="translate(240,48)"/>
<path d="M0 0 C2.0625 0.4375 2.0625 0.4375 4 1 C4 1.66 4 2.32 4 3 C4.95326172 3.36738281 4.95326172 3.36738281 5.92578125 3.7421875 C10.89970601 5.77726218 15.77826728 8.02937725 20.66992188 10.25390625 C21.45302734 10.60582031 22.23613281 10.95773438 23.04296875 11.3203125 C23.75477295 11.64273926 24.46657715 11.96516602 25.19995117 12.29736328 C26.98846152 13.12120757 26.98846152 13.12120757 29 13 C29.33 12.34 29.66 11.68 30 11 C30.66 11 31.32 11 32 11 C31.46515599 16.34844008 29.53309233 20.35796103 27 25 C26.34 25 25.68 25 25 25 C24.76442383 24.39317383 24.52884766 23.78634766 24.28613281 23.16113281 C22.67201665 20.4488784 21.2517769 19.77702383 18.421875 18.421875 C17.50792969 17.98359375 16.59398437 17.5453125 15.65234375 17.09375 C14.69457031 16.6503125 13.73679688 16.206875 12.75 15.75 C11.33654297 15.06164062 11.33654297 15.06164062 9.89453125 14.359375 C3.26228903 11.21890532 3.26228903 11.21890532 -4 11 C-3.5247412 9.35303396 -3.04468109 7.70745272 -2.5625 6.0625 C-2.29566406 5.14597656 -2.02882813 4.22945312 -1.75390625 3.28515625 C-1 1 -1 1 0 0 Z " fill="#0A0A0A" transform="translate(128,149)"/>
<path d="M0 0 C4.2742558 1.5830577 6.26531794 4.50568404 9 8 C8.52691406 8.32871094 8.05382812 8.65742187 7.56640625 8.99609375 C-0.62442688 14.88774565 -9.70840503 22.12521508 -13 32 C-16.96790076 30.32127275 -19.86931494 27.91722926 -23 25 C-23 24.01 -23 23.02 -23 22 C-21.7315625 21.9690625 -21.7315625 21.9690625 -20.4375 21.9375 C-15.54036419 20.60191751 -13.29924568 17.72149188 -10 14 C-9.37480469 13.3296875 -8.74960937 12.659375 -8.10546875 11.96875 C-4.6505517 8.18652502 -2.00619367 4.72045569 0 0 Z " fill="#0A0A0A" transform="translate(466,88)"/>
<path d="M0 0 C0.99 0.66 1.98 1.32 3 2 C2.814375 3.11375 2.62875 4.2275 2.4375 5.375 C1.68319343 8.82568861 1.68319343 8.82568861 3 11 C3.25 14 3.25 14 3 17 C-0.68717438 19.45811625 -2.64345704 19.31118164 -7 19 C-7.99 18.34 -8.98 17.68 -10 17 C-10.37163058 14.1756076 -10.28109793 12.52912552 -8.9375 10 C-7.73548412 7.96366251 -7.73548412 7.96366251 -8.5625 5.4375 C-9 3 -9 3 -7.9375 1.1875 C-5.17428518 -0.50608328 -3.18170002 -0.33142708 0 0 Z M-4 3 C-3.67 3.99 -3.34 4.98 -3 6 C-2.67 5.01 -2.34 4.02 -2 3 C-2.66 3 -3.32 3 -4 3 Z M-4 11 C-4.66 12.32 -5.32 13.64 -6 15 C-4.68 15 -3.36 15 -2 15 C-2.66 13.68 -3.32 12.36 -4 11 Z " fill="#0C0C0C" transform="translate(376,357)"/>
<path d="M0 0 C2.48816657 3.73224985 2.39300329 6.68569723 2 11 C1.4375 13.3125 1.4375 13.3125 0 15 C-2.29306889 16.22332313 -4.54996148 17.09257832 -7 18 C-6.38722388 15.03824877 -5.74627478 13.61941217 -4 11 C-5.98 10.34 -7.96 9.68 -10 9 C-10.625 6.1875 -10.625 6.1875 -11 3 C-7.87521953 -1.68717071 -5.14026869 -1.31240903 0 0 Z M-6 3 C-6 4.32 -6 5.64 -6 7 C-5.01 7 -4.02 7 -3 7 C-3 5.68 -3 4.36 -3 3 C-3.99 3 -4.98 3 -6 3 Z " fill="#111111" transform="translate(269,358)"/>
<path d="M0 0 C2 1.5625 2 1.5625 3 4 C3 7.5625 3 7.5625 2 11 C-0.25 13.0625 -0.25 13.0625 -3 14 C-6.17435434 13.18795587 -7.68180575 12.31819425 -10 10 C-10.54587156 3.99541284 -10.54587156 3.99541284 -8.9375 1.0625 C-5.84506242 -0.63335287 -3.44485259 -0.43060657 0 0 Z " fill="#080808" transform="translate(209,389)"/>
<path d="M0 0 C2.9375 0.75 2.9375 0.75 4.9375 2.75 C5.203125 4.625 5.203125 4.625 5.1875 6.75 C5.19265625 7.45125 5.1978125 8.1525 5.203125 8.875 C4.9375 10.75 4.9375 10.75 2.9375 12.75 C-3.20481015 13.4200702 -3.20481015 13.4200702 -6.0625 11.1875 C-7.49385511 7.69857191 -6.996466 5.35244028 -6.0625 1.75 C-3.0625 -0.25 -3.0625 -0.25 0 0 Z " fill="#070707" transform="translate(435.0625,389.25)"/>
<path d="M0 0 C4.29 0 8.58 0 13 0 C9.92777213 12.59613428 9.92777213 12.59613428 6 17 C4.68 17 3.36 17 2 17 C2.28875 16.22914063 2.5775 15.45828125 2.875 14.6640625 C3.24625 13.66117187 3.6175 12.65828125 4 11.625 C4.37125 10.62726563 4.7425 9.62953125 5.125 8.6015625 C6.10626277 6.14151939 6.10626277 6.14151939 6 4 C4.02 4 2.04 4 0 4 C0 2.68 0 1.36 0 0 Z " fill="#0C0C0C" transform="translate(380,358)"/>
<path d="M0 0 C1.15316726 6.34241995 1.09507063 12.56688704 1 19 C-0.98 19 -2.96 19 -5 19 C-5.0272415 17.58344207 -5.04650467 16.16672955 -5.0625 14.75 C-5.07410156 13.96109375 -5.08570313 13.1721875 -5.09765625 12.359375 C-5.00385306 10.09308998 -4.63241063 8.1711105 -4 6 C-5.32 6 -6.64 6 -8 6 C-6.72879117 2.18637351 -4.19078006 0 0 0 Z " fill="#1A1A1A" transform="translate(254,357)"/>
</svg>
